<?xml version="1.0" encoding="UTF-8"?>
<svg version="1.1" xmlns="http://www.w3.org/2000/svg" width="3586" height="1485">
<path d="M0 0 C77.55 0 155.1 0 235 0 C231.98981762 2.25763679 229.06751413 4.2282457 225.875 6.1875 C220.24366216 9.75401397 215.05848496 13.6629141 210 18 C209.37351562 18.52980469 208.74703125 19.05960938 208.1015625 19.60546875 C181.08570666 44.3598163 181.57304441 91.96606742 180 125 C179.67 191.99 179.34 258.98 179 328 C326.84 328 474.68 328 627 328 C642.00227355 198.87615563 642.00227355 198.87615563 596.390625 19.234375 C589.6807226 12.60187678 582.17220196 7.69072331 574.078125 2.8984375 C573.06234375 2.27195312 572.0465625 1.64546875 571 1 C571 0.67 571 0.34 571 0 C648.55 0 726.1 0 806 0 C802.74740086 2.60207931 799.55414953 5.03868727 796.14086914 7.3984375 C772.88666687 23.55067201 761.89890008 43.36298745 756.87109375 70.9609375 C751.00608671 106.06634554 751.70330193 141.74790072 751.73855066 177.21461272 C751.74265979 183.34821815 751.73725113 189.48180984 751.73225593 195.61541338 C751.72181178 208.9063639 751.72260198 222.197295 751.72841376 235.48824729 C751.7334743 247.12041704 751.73474469 258.75257974 751.73236847 270.38475037 C751.7322157 271.16076491 751.73206293 271.93677945 751.73190553 272.73630958 C751.7312827 275.88756794 751.73064589 279.03882629 751.729986 282.19008463 C751.72388818 311.66274196 751.72938275 341.13538704 751.7401798 370.60804247 C751.74966875 396.70826535 751.7488194 422.8084687 751.73925781 448.90869141 C751.7285143 478.33251828 751.72432089 507.75633435 751.73048234 537.18016291 C751.73112363 540.32519181 751.73174932 543.47022072 751.73236847 546.61524963 C751.73252662 547.38945626 751.73268478 548.16366289 751.73284773 548.96133032 C751.73510859 560.5771234 751.73248864 572.19290858 751.72740936 583.80870056 C751.72165377 597.03591998 751.72319862 610.26311721 751.73397085 623.49033391 C751.73927504 630.22273216 751.74136357 636.95508622 751.73467255 643.68748665 C747.7003123 725.53456461 747.7003123 725.53456461 780 797 C787.10111157 803.59527897 794.71993019 809.00071257 803 814 C803.99 814.66 804.98 815.32 806 816 C728.45 816 650.9 816 571 816 C572.72392856 814.85071429 574.46363331 813.72295083 576.2421875 812.66015625 C598.36709667 799.23420988 612.53366899 780.37356636 619 755 C625.9427265 724.92482702 626.13327457 693.81310016 626.20532227 663.10620117 C626.21506126 660.4303556 626.22516723 657.75451369 626.23572445 655.07867146 C626.26012953 648.69198516 626.27984435 642.30529349 626.29780969 635.91858618 C626.31885107 628.51296877 626.34591309 621.10738097 626.3729248 613.70178223 C626.44116026 594.19703848 626.50134865 574.69226725 626.5625 555.1875 C626.706875 511.565625 626.85125 467.94375 627 423 C479.16 423 331.32 423 179 423 C179.12375 466.704375 179.2475 510.40875 179.375 555.4375 C179.40899902 569.18075928 179.44299805 582.92401855 179.47802734 597.08374023 C179.5179858 609.5226559 179.5179858 609.5226559 179.56045532 621.96156311 C179.57914218 627.45427831 179.59271364 632.94697531 179.60269165 638.43971252 C175.4152563 723.72714132 175.4152563 723.72714132 209.015625 798.07421875 C216.29347567 804.93426688 225.53453628 811.61947724 235 815 C235 815.33 235 815.66 235 816 C157.45 816 79.9 816 0 816 C1.9777872 814.6814752 3.97923954 813.39768491 6.00390625 812.15234375 C13.6846402 807.39997768 20.5655594 802.39965984 27 796 C27.62261719 795.4121875 28.24523438 794.824375 28.88671875 794.21875 C58.09814789 764.28524059 54.16335007 705.49896741 54.13371277 667.25386047 C54.13558563 664.92945529 54.13788821 662.60505041 54.14057809 660.28064603 C54.14664393 653.95184044 54.14656871 647.62304817 54.14538372 641.29424036 C54.14470988 635.15059314 54.14970468 629.00694898 54.1539966 622.86330364 C54.16362494 608.7600874 54.16647917 594.65687481 54.16705366 580.55365566 C54.16751482 569.65198775 54.1695815 558.75032125 54.17275429 547.84865379 C54.17365196 544.70020698 54.17454178 541.55176016 54.17542917 538.40331334 C54.17565021 537.62038732 54.17587126 536.83746129 54.17609901 536.03081024 C54.1822462 514.03263956 54.1862003 492.03446937 54.18575573 470.0362978 C54.18574015 469.20832551 54.18572457 468.38035323 54.18570852 467.52729088 C54.18562543 463.33167862 54.18552639 459.13606636 54.18542381 454.9404541 C54.18540387 454.10733304 54.18538392 453.27421197 54.18536337 452.41584481 C54.18532294 450.73107201 54.18528114 449.04629921 54.18523798 447.36152641 C54.18462586 421.17615202 54.19212311 394.9907906 54.20581055 368.80541992 C54.22121708 339.31979568 54.229774 309.83417997 54.22884732 280.34855145 C54.22877271 277.19601802 54.22872399 274.04348459 54.22869301 270.89095116 C54.22867553 269.72678446 54.22867553 269.72678446 54.22865769 268.53909924 C54.22862709 256.1234628 54.23497549 243.70783773 54.24362527 231.29220466 C54.2521594 218.78257729 54.25304714 206.27296634 54.24651595 193.76333765 C54.24317632 187.00469964 54.24310732 180.24610723 54.2518692 173.48747063 C58.26585436 93.84335153 58.26585436 93.84335153 29 23 C28.30648437 22.21496094 27.61296875 21.42992188 26.8984375 20.62109375 C21.25342853 14.59913793 15.20345396 10.24653418 8.19921875 6.0078125 C5 4 5 4 0 0 Z " fill="#FFFFFF" transform="translate(2745,81)"/>
<path d="M0 0 C1.55009262 0.00140488 1.55009262 0.00140488 3.13150024 0.00283813 C20.97523648 0.03768281 38.66119706 0.51083751 56.4375 2.1875 C57.21665771 2.26055359 57.99581543 2.33360718 58.79858398 2.40887451 C114.51010468 7.69858593 168.9532286 18.6142066 223.4375 31.1875 C223.4375 78.3775 223.4375 125.5675 223.4375 174.1875 C208.4375 166.1875 208.4375 166.1875 202.92578125 163.23828125 C152.04820875 136.21002586 98.6885207 116.45858182 41.4375 109.1875 C40.40850586 109.05617676 39.37951172 108.92485352 38.31933594 108.78955078 C-40.52508306 99.29038371 -124.03554174 117.56828714 -187.5625 166.1875 C-191.46215803 169.28843289 -195.25431256 172.50661684 -198.98999023 175.8034668 C-200.12673928 176.80396833 -201.27037784 177.7966605 -202.41821289 178.78442383 C-214.52082305 189.23486115 -225.79072786 200.55034694 -235.27539062 213.44287109 C-236.61879664 215.26380801 -237.9872516 217.06390701 -239.359375 218.86328125 C-280.4206909 273.1539713 -297.75907715 341.37584006 -297.8125 408.625 C-297.81350708 409.51468475 -297.81451416 410.40436951 -297.81555176 411.3210144 C-297.7431903 506.77110208 -261.67607036 597.83038939 -190.39453125 671.54077148 C-185.39364086 676.45373251 -180.0696853 680.85252683 -174.5625 685.1875 C-173.43163721 686.11741743 -172.30283909 687.04984962 -171.17578125 687.984375 C-107.19904258 740.71378532 -26.93290416 760.37755807 54.65286255 752.87014771 C105.80777398 747.88341154 155.09000653 733.96283488 202.4375 714.1875 C203.61763672 713.69701172 204.79777344 713.20652344 206.01367188 712.70117188 C230.67918613 702.38985438 254.76934636 690.79703168 278.54199219 678.57324219 C283.22546813 676.1875 283.22546813 676.1875 285.4375 676.1875 C283.32658049 682.97117623 280.70970899 689.43759724 277.8515625 695.9375 C277.40230911 696.96813065 276.95305573 697.99876129 276.4901886 699.06062317 C275.52234571 701.28011204 274.55281508 703.49886557 273.58175659 705.71694946 C270.97755829 711.66591282 268.38588417 717.6203311 265.79296875 723.57421875 C265.52783792 724.18259771 265.2627071 724.79097668 264.98954201 725.41779137 C259.84175854 737.23038111 254.75705524 749.06940451 249.69363403 760.91836548 C248.3830658 763.9811503 247.06814896 767.04202977 245.75170898 770.10229492 C242.21662414 778.32444238 238.6845915 786.54518593 235.2830658 794.82368469 C234.0321642 797.86162727 232.76246492 800.89149112 231.48953247 803.92025757 C230.9232828 805.28244291 230.3664787 806.64860228 229.82028198 808.01895142 C225.30933363 819.33226787 225.30933363 819.33226787 221.01953125 821.65625 C219.50650525 822.20766312 217.97590254 822.71145195 216.4375 823.1875 C214.71921674 823.84125675 213.00105858 824.49535329 211.28450012 825.15362549 C207.85505989 826.44905219 204.39620758 827.66035144 200.9375 828.875 C200.1960675 829.13628693 199.45463501 829.39757385 198.69073486 829.66677856 C159.05040585 843.57788487 118.40773485 852.31671677 76.4375 855.1875 C75.20563965 855.27507568 73.9737793 855.36265137 72.70458984 855.45288086 C59.24725639 856.34298091 45.79486098 856.38762864 32.3125 856.375 C31.11885834 856.37439575 29.92521667 856.3737915 28.69540405 856.37316895 C9.85939981 856.34733923 -8.80181978 855.97169184 -27.5625 854.1875 C-28.23810974 854.12433594 -28.91371948 854.06117188 -29.60980225 853.99609375 C-96.90264898 847.66721169 -160.99013303 830.38926553 -221.5625 800.1875 C-222.49755371 799.7219873 -223.43260742 799.25647461 -224.39599609 798.77685547 C-250.01051985 785.93080445 -273.8597678 770.01760003 -295.82861328 751.62890625 C-297.44358689 750.28635427 -299.07352157 748.96637775 -300.71484375 747.65625 C-305.56454114 743.77117006 -310.13835333 739.81482085 -314.41796875 735.3046875 C-316.33385089 733.41323373 -318.30196056 731.67423616 -320.34375 729.921875 C-324.44638044 726.35745742 -328.18538884 722.54845759 -331.875 718.5625 C-332.52597656 717.86157227 -333.17695313 717.16064453 -333.84765625 716.43847656 C-359.99944468 688.11166242 -380.20200468 656.48061326 -397.5625 622.1875 C-398.12300049 621.09066895 -398.12300049 621.09066895 -398.69482422 619.97167969 C-437.78912308 542.90594358 -446.49925688 448.1037001 -417.06109619 287.64544678 C-411.5917716 271.04090623 -404.90914951 255.04155054 -397.5625 239.1875 C-397.13646484 238.26227539 -396.71042969 237.33705078 -396.27148438 236.38378906 C-379.75188332 200.89773933 -356.86291023 167.74675701 -330.2578125 139.1015625 C-327.785108 136.42817473 -325.35623619 133.72213167 -322.9375 131 C-316.87232004 124.25370358 -310.52749969 117.8868907 -303.63671875 111.984375 C-301.36092282 110.0128757 -299.15327333 107.97615605 -296.9375 105.9375 C-290.73298842 100.35438108 -284.19888427 95.23983875 -277.5625 90.1875 C-276.84384766 89.63900391 -276.12519531 89.09050781 -275.38476562 88.52539062 C-211.62930245 40.0931289 -135.60310954 12.0638351 -56.375 2.9375 C-55.65745544 2.85432526 -54.93991089 2.77115051 -54.20062256 2.68545532 C-36.12883898 0.61839409 -18.1853494 -0.02145256 0 0 Z " fill="#FFFFFF" transform="translate(483.5625,60.8125)"/>
<path d="M0 0 C55.44 0 110.88 0 168 0 C171.07384588 6.76246094 174.06382681 13.4509068 176.7890625 20.34375 C177.33510635 21.71409393 177.33510635 21.71409393 177.8921814 23.11212158 C178.7032847 25.14800945 179.51326004 27.18434698 180.32226562 29.22106934 C182.43282101 34.53325339 184.55129528 39.8422776 186.67009735 45.15117645 C187.21390673 46.51375837 187.75763148 47.87637406 188.30127716 49.2390213 C197.81998945 73.09504253 207.41786734 96.91940529 217 120.75 C220.66695508 129.86967573 224.33375858 138.98941234 228 148.109375 C228.44214844 149.20921534 228.88429688 150.30905567 229.33984375 151.4422245 C234.82976554 165.09934982 240.30935826 178.76051129 245.77073288 192.42907524 C251.28013764 206.21627645 256.81434772 219.99347857 262.3515625 233.76953125 C262.80824059 234.90571018 263.26491867 236.04188911 263.73543549 237.21249771 C267.03155298 245.41266091 270.32823734 253.61259616 273.625 261.8125 C277.38834535 271.17304665 281.15146262 280.53368492 284.9140625 289.89453125 C285.36895805 291.02623371 285.82385361 292.15793617 286.29253387 293.32393265 C291.20211927 305.53891347 296.10830792 317.75518521 300.9921875 329.98046875 C306.36174177 343.42148571 311.75828826 356.85162004 317.15625 370.28125 C317.61335735 371.4185021 318.07046471 372.5557542 318.5414238 373.72746849 C321.86060706 381.98511654 325.18025715 390.2425769 328.5 398.5 C340.38191869 428.05470775 352.26138305 457.61017795 364.07348633 487.19287109 C368.58180994 498.48268577 373.0952035 509.77044951 377.61724091 521.05477905 C379.77890947 526.44962175 381.9379852 531.8454727 384.09130859 537.24365234 C410.61998274 605.70081042 410.61998274 605.70081042 453 665 C453.74636719 665.81082031 454.49273438 666.62164063 455.26171875 667.45703125 C465.09160417 677.77434901 476.92545967 685.55113789 489 693 C489.99 693.66 490.98 694.32 492 695 C419.73 695 347.46 695 273 695 C275.5335496 693.0998378 277.85988165 691.41234354 280.5390625 689.80078125 C298.16548038 679.69140218 298.16548038 679.69140218 309.3125 663.4375 C311.77668449 650.82667351 309.08537229 639.82995296 305 628 C304.68305176 627.06575195 304.36610352 626.13150391 304.03955078 625.16894531 C298.05318055 607.6190867 291.3062785 590.37167176 284.52958679 573.11601257 C279.37758067 559.99562917 274.30329809 546.84618411 269.25 533.6875 C268.41064485 531.50252266 267.57128938 529.31754545 266.73193359 527.13256836 C265.45672069 523.81260166 264.1816515 520.49257996 262.90689087 517.17243958 C259.79562948 509.06932673 256.6801211 500.96785545 253.5625 492.8671875 C253.1153363 491.70518326 252.66817261 490.54317902 252.2074585 489.34596252 C249.60744511 482.58956185 249.60744511 482.58956185 247.00695801 475.83334351 C245.82201316 472.75490944 244.63752668 469.67629933 243.453125 466.59765625 C243.12046631 465.73377289 242.78780762 464.86988953 242.44506836 463.97982788 C238.60504435 453.9959726 234.80810688 443.99628055 231 434 C142.89 434 54.78 434 -36 434 C-41.94 450.17 -47.88 466.34 -54 483 C-63.28537081 507.7837471 -63.28537081 507.7837471 -65.92510986 514.81117249 C-67.95180144 520.2067998 -69.97575246 525.60345542 -72 531 C-72.37887863 532.00977779 -72.37887863 532.00977779 -72.76541138 533.03995514 C-76.22357676 542.2567231 -79.6760515 551.47558468 -83.11715698 560.69873714 C-84.56310271 564.57389677 -86.01118807 568.44822087 -87.46508789 572.32040405 C-106.95923293 617.7415524 -106.95923293 617.7415524 -104 665 C-97.70538381 678.15413383 -86.76213254 684.74152358 -74.66650391 691.98193359 C-73.08567154 692.9476633 -71.54135264 693.97243157 -70 695 C-134.02 695 -198.04 695 -264 695 C-261.11076052 692.68860841 -258.38120692 690.50822202 -255.35546875 688.44140625 C-214.90965535 660.53413599 -194.90682319 624.65953489 -176.9921875 579.56640625 C-176.48393921 578.29120235 -175.9755399 577.01605863 -175.4670105 575.7409668 C-173.98297688 572.01786892 -172.50179826 568.29364077 -171.02128601 564.56914139 C-169.9349381 561.83633065 -168.84818013 559.10368324 -167.76135254 556.37106323 C-164.34593728 547.78335285 -160.93131543 539.19532714 -157.51727295 530.60707092 C-151.30200804 514.97237943 -145.08537997 499.3382319 -138.85961533 483.7077179 C-137.9369818 481.39088497 -137.01471568 479.07390569 -136.0928688 476.75675964 C-128.63117669 458.00235887 -121.0430419 439.30122353 -113.38743591 420.62519836 C-103.67446776 396.93004637 -94.27179312 373.10969245 -84.8125 349.3125 C-70.49194303 313.28672866 -56.11721975 277.28367132 -41.64717865 241.3176651 C-39.43101629 235.80886002 -37.21577873 230.2996831 -35.00048828 224.79052734 C-34.11604019 222.59108392 -33.23158991 220.39164137 -32.34713745 218.19219971 C-31.69052942 216.55934399 -31.69052942 216.55934399 -31.02065659 214.89350128 C-29.69747893 211.6030437 -28.37426968 208.31259882 -27.05105591 205.02215576 C-24.82381702 199.48362296 -22.59671955 193.94503331 -20.3697052 188.40641022 C-19.44618924 186.10965746 -18.52263494 183.81292013 -17.5990448 181.5161972 C-11.95842595 167.48930721 -6.32142219 153.46098108 -0.69502163 139.42838097 C1.5055268 133.94031864 3.70780453 128.45296776 5.91488647 122.9675293 C7.96106204 117.88191301 10.00222106 112.79431179 12.03965378 107.70518684 C12.7799842 105.85841754 13.52205808 104.0123459 14.26613235 102.16708183 C30.41800637 65.171789 30.41800637 65.171789 29.02734375 26.30078125 C23.215936 13.28587947 12.61924487 6.72419355 0 1 C0 0.67 0 0.34 0 0 Z M96 90 C95.52916992 91.21727783 95.05833984 92.43455566 94.57324219 93.6887207 C83.34560469 122.70956487 72.03955301 151.69865227 60.66522217 180.66229248 C56.3930764 191.54227706 52.13306597 202.42699887 47.875 213.3125 C47.13273402 215.20988069 46.39046515 217.10726025 45.64819336 219.00463867 C44.17131075 222.7799182 42.69451952 226.55523347 41.21777344 230.33056641 C37.85464024 238.92826864 34.49021722 247.52546614 31.12591553 256.12271118 C30.00331366 258.99153191 28.88079435 261.86038494 27.75830078 264.72924805 C23.9598538 274.43715443 20.16043679 284.14467961 16.359375 293.8515625 C11.90279185 305.23302358 7.44959203 316.61580392 3 328 C2.46711365 329.36315338 2.46711365 329.36315338 1.92346191 330.75384521 C-0.11676735 335.97348795 -2.15505394 341.19388137 -4.19030762 346.41546631 C-4.80895389 348.00199464 -5.42816757 349.58830184 -6.04797363 351.17437744 C-6.89036474 353.33047142 -7.73064319 355.48737612 -8.5703125 357.64453125 C-9.04227051 358.85471924 -9.51422852 360.06490723 -10.00048828 361.31176758 C-11.05808345 363.67821247 -11.05808345 363.67821247 -11 365 C59.95 365 130.9 365 204 365 C199.45102874 351.98027496 199.45102874 351.98027496 194.58203125 339.09375 C194.14018997 337.96628357 194.14018997 337.96628357 193.68942261 336.81604004 C193.06007425 335.2108631 192.42948557 333.60617195 191.79769897 332.00195312 C190.03871701 327.53494642 188.2899059 323.06395134 186.5390625 318.59375 C186.17014389 317.65265381 185.80122528 316.71155762 185.42112732 315.74194336 C181.14864305 304.83880004 176.91773331 293.91958899 172.6875 283 C171.88519716 280.92967795 171.08286955 278.85936551 170.28051758 276.7890625 C168.66127399 272.61074849 167.04224374 268.43235189 165.42333984 264.25390625 C161.84584057 255.02076846 158.26547406 245.78874256 154.68530273 236.55664062 C153.49648077 233.49092467 152.30778937 230.42515812 151.11914062 227.359375 C147.58542767 218.24528109 144.05128812 209.13135396 140.51470947 200.01837158 C131.36333482 176.43718763 122.23174565 152.84845139 113.125 129.25 C112.65210541 128.02458496 112.17921082 126.79916992 111.69198608 125.53662109 C110.33876278 122.0296862 108.98572296 118.5226806 107.6328125 115.015625 C107.23775009 113.99156555 106.84268768 112.9675061 106.43565369 111.91241455 C103.61924544 104.61001472 100.8085656 97.30541953 98 90 C97.34 90 96.68 90 96 90 Z " fill="#FFFFFF" transform="translate(1610,66)"/>
<path d="M0 0 C1.05880371 0.00060425 2.11760742 0.0012085 3.20849609 0.00183105 C20.51214555 0.02855433 37.64605102 0.45411418 54.875 2.1875 C56.11926758 2.31108887 57.36353516 2.43467773 58.64550781 2.56201172 C135.5339777 10.51698885 135.5339777 10.51698885 160.875 23.1875 C160.875 62.7875 160.875 102.3875 160.875 143.1875 C156.98543023 139.85358305 153.25523171 136.62301139 149.5625 133.125 C116.01827115 102.97061026 72.15951761 84.0829033 27.875 77.1875 C27.08786621 77.05907715 26.30073242 76.9306543 25.48974609 76.79833984 C-17.80582675 70.01413327 -69.77877717 75.08964391 -106.546875 100.484375 C-109.47872256 102.64233387 -112.31305012 104.87619401 -115.125 107.1875 C-115.91132813 107.79851562 -116.69765625 108.40953125 -117.5078125 109.0390625 C-133.66084032 122.26540932 -142.84210864 142.75018683 -145.125 163.1875 C-146.39856722 186.35441336 -143.21508841 207.81166654 -128.125 226.1875 C-127.609375 226.84234375 -127.09375 227.4971875 -126.5625 228.171875 C-107.63728191 251.41697983 -76.85331865 265.46707161 -50.78564453 278.81445312 C-47.51975402 280.49984203 -44.27984458 282.23119867 -41.03979492 283.96557617 C-21.45154919 294.41862766 -1.20782338 303.56081069 18.94061279 312.86785889 C32.01799386 318.90968572 45.03844337 325.0486746 57.99609375 331.34375 C61.78773496 333.18542198 65.59007878 334.99932154 69.41015625 336.78125 C81.29705001 342.33252838 92.83450839 348.36795099 104.29394531 354.75439453 C106.69653241 356.08840761 109.10756814 357.40507888 111.5234375 358.71484375 C127.60380528 367.46686838 143.57718259 376.69818244 157.875 388.1875 C158.803125 388.92484375 159.73125 389.6621875 160.6875 390.421875 C166.94675222 395.4640504 172.99445085 400.70895978 178.875 406.1875 C179.67550781 406.92226563 180.47601562 407.65703125 181.30078125 408.4140625 C206.57389817 432.51824737 221.18622857 467.1510609 222.078125 501.98046875 C222.63095016 547.04452225 209.51517107 589.2742846 181.875 625.1875 C181.12863281 626.16460938 180.38226562 627.14171875 179.61328125 628.1484375 C170.42264523 639.73441488 160.11437377 650.5835769 148.875 660.1875 C147.47121094 661.44046875 147.47121094 661.44046875 146.0390625 662.71875 C118.95146256 686.64823246 86.0064118 703.0030035 51.875 714.1875 C51.00230469 714.47463867 50.12960937 714.76177734 49.23046875 715.05761719 C12.33781959 726.94875488 -26.69365206 730.41573491 -65.25 730.375 C-66.30880371 730.37439575 -67.36760742 730.3737915 -68.45849609 730.37316895 C-85.76085799 730.34644765 -102.89784094 729.92914685 -120.125 728.1875 C-122.03925781 727.99414062 -122.03925781 727.99414062 -123.9921875 727.796875 C-153.95016093 724.68392921 -183.21433914 718.63616211 -212.125 710.1875 C-212.90959595 709.95959778 -213.69419189 709.73169556 -214.50256348 709.49688721 C-219.61427273 708.00739992 -224.71142838 706.47693033 -229.79684448 704.89996338 C-231.46268728 704.38679011 -233.13125768 703.88238209 -234.80252075 703.387146 C-237.14205544 702.68999306 -239.46755722 701.95755305 -241.79296875 701.21484375 C-242.49152985 701.01387589 -243.19009094 700.81290802 -243.90982056 700.60585022 C-247.49964988 699.41352907 -248.91686746 698.59142206 -250.66905212 695.19096375 C-252.42914375 690.69281257 -253.55477939 686.05209846 -254.68115234 681.36279297 C-254.91739822 680.40063873 -255.1536441 679.4384845 -255.39704895 678.44717407 C-256.17413755 675.2760629 -256.94259116 672.10292718 -257.7109375 668.9296875 C-258.25466569 666.70301005 -258.7989148 664.47645975 -259.34365845 662.25003052 C-260.77738153 656.38385628 -262.20371578 650.51590922 -263.62860107 644.64758301 C-265.06281509 638.74698324 -266.5045154 632.84821377 -267.9453125 626.94921875 C-273.31215402 604.95972347 -273.31215402 604.95972347 -275.7243042 594.96820068 C-276.68137453 591.00504594 -277.65408804 587.04610738 -278.63555908 583.08892822 C-279.10823469 581.16104043 -279.58079415 579.23312414 -280.05322266 577.30517578 C-280.27759192 576.41305326 -280.50196117 575.52093075 -280.7331295 574.60177422 C-281.03086989 573.37759883 -281.03086989 573.37759883 -281.33462524 572.12869263 C-281.51209101 571.41288088 -281.68955677 570.69706913 -281.87240028 569.95956612 C-282.125 568.1875 -282.125 568.1875 -281.125 566.1875 C-280.56296875 566.67476562 -280.0009375 567.16203125 -279.421875 567.6640625 C-210.90041875 625.46590443 -117.17093786 655.7344226 -27.84375 648.6875 C4.92080736 645.54383496 39.56852977 635.6280952 65.875 615.1875 C66.84824219 614.4346875 67.82148438 613.681875 68.82421875 612.90625 C88.65197314 597.10896683 102.80343206 576.81084311 105.875 551.1875 C107.58318557 524.3379886 99.5169749 498.32928034 81.9375 477.75 C69.49030859 463.69828782 54.40855444 452.67606415 38.1171875 443.453125 C37.21384171 442.93983139 36.31049591 442.42653778 35.379776 441.89768982 C25.52310128 436.34958731 15.44781038 431.26540443 5.3125 426.25 C3.36863028 425.28308472 1.42478293 424.31612447 -0.51904297 423.34912109 C-14.11092938 416.6042624 -27.79528292 410.11047981 -41.59863281 403.80957031 C-48.46386882 400.65167582 -55.29164106 397.41364101 -62.125 394.1875 C-71.38075264 389.81891815 -80.64664423 385.47708334 -89.9465332 381.203125 C-112.93127523 370.62323663 -135.6103116 359.51866416 -157.46533203 346.74169922 C-160.13534866 345.18145268 -162.81552298 343.63968136 -165.49609375 342.09765625 C-179.73793888 333.82170309 -192.01491143 324.35835728 -204.125 313.1875 C-205.83232104 311.66553033 -207.54066009 310.1447019 -209.25 308.625 C-239.96052485 280.8279153 -260.0659407 241.76345986 -263.125 200.1875 C-265.00970537 156.46900046 -254.58836876 113.25377824 -224.70727539 80.14282227 C-222.69548207 77.9681464 -220.65098703 75.82765584 -218.58789062 73.70166016 C-217.21372511 72.27933464 -215.86375845 70.83374223 -214.515625 69.38671875 C-161.11233166 13.4750889 -73.59407754 -0.07775239 0 0 Z " fill="#FFFFFF" transform="translate(2423.125,48.8125)"/>
<path d="M0 0 C66.33 0 132.66 0 201 0 C197.9847126 2.26146555 195.08404023 4.1883489 191.875 6.125 C172.56993418 18.40302186 164.39058835 35.51655885 159.54785156 57.22802734 C155.11919795 79.63575154 154.85244168 102.70107996 154.84178162 125.45658875 C154.83720365 127.55601192 154.83220187 129.6554342 154.82681805 131.75485545 C154.81336793 137.4697206 154.80585716 143.18457988 154.79939139 148.89945662 C154.79132903 155.08255481 154.7776517 161.26564099 154.76467896 167.44873047 C154.74299833 178.14342082 154.72478951 188.83811178 154.70907402 199.53281212 C154.69259057 210.74007312 154.67409032 221.94732786 154.65294075 233.15458107 C154.65162314 233.85338014 154.65030554 234.55217921 154.648948 235.27215401 C154.64224522 238.82150653 154.63550683 242.37085898 154.62875474 245.92021141 C154.58108733 271.0110105 154.53787509 296.10181545 154.49731445 321.19262695 C154.45791857 345.55656358 154.41648503 369.92049537 154.37231445 394.28442383 C154.37095192 395.03642307 154.36958939 395.7884223 154.36818558 396.5632094 C154.35449931 404.11561365 154.34077186 411.66801783 154.32701423 419.22042196 C154.29899336 434.60331249 154.2712473 449.98620352 154.2436676 465.36909485 C154.2423994 466.07625825 154.2411312 466.78342164 154.23982458 467.51201423 C154.15527641 514.67466829 154.07715282 561.83733333 154 609 C155.27417282 609.1331813 156.54834564 609.26636261 157.86112976 609.40357971 C159.5658694 609.58226368 161.27060662 609.76097076 162.9753418 609.93969727 C163.81121574 610.02700356 164.64708969 610.11430984 165.50829315 610.20426178 C170.80758738 610.76041165 176.10193201 611.34818848 181.39453125 611.96484375 C197.22331189 613.80324096 213.05077522 615.43441213 228.9375 616.6875 C229.69463287 616.74807587 230.45176575 616.80865173 231.23184204 616.87106323 C251.43510575 618.47351738 271.60810042 619.23830554 291.875 619.25 C292.94138702 619.25067474 294.00777405 619.25134949 295.10647583 619.25204468 C367.51607143 619.17975332 426.57069154 596.47669246 486 556 C487.19569961 559.58709884 486.74982478 560.29754037 485.36376953 563.70703125 C484.97745865 564.67080185 484.59114777 565.63457245 484.19313049 566.62754822 C483.76072556 567.67858231 483.32832062 568.72961639 482.8828125 569.8125 C482.43924911 570.91223648 481.99568573 572.01197296 481.53868103 573.14503479 C480.32805902 576.14251524 479.10932417 579.13654332 477.88728714 582.12938309 C476.61087941 585.26162782 475.34552215 588.39832388 474.07983398 591.53491211 C472.53802401 595.354467 470.99572024 599.17381247 469.44914246 602.99143982 C465.27640635 613.29321258 461.16431176 623.61797555 457.08880615 633.95855713 C456.06710369 636.55081952 455.04377376 639.14243402 454.02001953 641.73388672 C450.91945818 649.58480136 447.8264823 657.43866988 444.74082947 665.29545593 C443.33103098 668.88436988 441.9194652 672.47258755 440.50778198 676.0607605 C439.52146117 678.57039337 438.53812893 681.08118316 437.55493164 683.59204102 C436.96384818 685.09527137 436.37262904 686.5984484 435.78125 688.1015625 C435.51235458 688.79089371 435.24345917 689.48022491 434.96641541 690.19044495 C433.1137877 694.8862123 433.1137877 694.8862123 432 696 C429.71182129 696.09819253 427.42053258 696.12371072 425.13024807 696.12304783 C424.39971679 696.12420167 423.66918552 696.12535552 422.91651693 696.12654433 C420.43744073 696.12921794 417.95842784 696.12468276 415.47935486 696.12025452 C413.69657789 696.12069007 411.91380098 696.12156467 410.13102442 696.12284368 C405.20779579 696.12509183 400.2845887 696.12106302 395.36136281 696.11606562 C390.06139904 696.11176587 384.76143658 696.11320721 379.46147156 696.1139679 C370.27085518 696.11449343 361.08024587 696.11134353 351.88963127 696.10573006 C338.60138004 696.09761908 325.31313225 696.09500025 312.02487881 696.09374207 C290.46799995 696.09155091 268.91112486 696.08488911 247.35424805 696.07543945 C226.40795918 696.06626697 205.46167133 696.05918534 184.51538086 696.05493164 C183.22526149 696.05466892 181.93514213 696.05440619 180.60592823 696.05413551 C174.13408009 696.05283052 167.66223195 696.0515668 161.19038379 696.05032361 C107.46025325 696.03994902 53.73012681 696.02232898 0 696 C2.94999088 693.75495011 5.95040198 691.79086528 9.125 689.875 C26.90527803 678.54303614 35.96126178 662.33973613 40.5546875 642.05859375 C47.36391682 610.58084064 46.29851379 577.77171163 46.26144934 545.75384414 C46.25686195 539.87304676 46.26393924 533.99226051 46.26940918 528.11146545 C46.27823859 516.63471756 46.27641027 505.15799603 46.2705839 493.68124717 C46.26604198 484.34299788 46.26541307 475.00475562 46.26763153 465.66650581 C46.2677843 464.99922595 46.26793707 464.33194609 46.26809447 463.64444562 C46.26871731 460.9346772 46.26935412 458.22490878 46.270014 455.51514037 C46.27611009 430.17831821 46.27061991 404.84151031 46.2598202 379.50469036 C46.25033034 357.0704207 46.25118172 334.63617376 46.26074219 312.2019043 C46.27148686 286.90522955 46.27567857 261.60856737 46.26951766 236.31189066 C46.26887637 233.60781992 46.26825068 230.90374917 46.26763153 228.19967842 C46.26747338 227.53403149 46.26731522 226.86838456 46.26715227 226.18256651 C46.26489199 216.19823993 46.2675232 206.21392279 46.27259064 196.22959709 C46.27823494 184.86025906 46.27660911 173.4909486 46.26602915 162.12161367 C46.26081992 156.33552993 46.25863325 150.54949193 46.26532745 144.76340866 C49.16761705 75.72946277 49.16761705 75.72946277 21.59765625 15.390625 C15.17874342 9.48329469 7.86384978 4.76097164 0 1 C0 0.67 0 0.34 0 0 Z " fill="#FFFFFF" transform="translate(837,65)"/>
<path d="M0 0 C34.32 0 68.64 0 104 0 C106.64 4.62 109.28 9.24 112 14 C113.53754705 16.21443993 115.12587375 18.39688635 116.8125 20.5 C117.2257251 21.02150635 117.6389502 21.5430127 118.06469727 22.08032227 C118.93095533 23.17260305 119.80098361 24.26190466 120.67480469 25.34814453 C122.48961102 27.61029996 124.27435399 29.89548914 126.0612793 32.1796875 C127.44256825 33.94397355 128.82798788 35.7049312 130.21484375 37.46484375 C132.98001685 40.97385325 135.74041443 44.48659557 138.5 48 C139.4166451 49.16668361 140.33331177 50.33335027 141.25 51.5 C177 97 177 97 212.75 142.5 C213.2035083 143.07717773 213.6570166 143.65435547 214.12426758 144.24902344 C215.04343313 145.41890016 215.96254095 146.58882223 216.8815918 147.75878906 C219.13456094 150.62671157 221.38843723 153.4939099 223.64453125 156.359375 C229.38952887 163.65890138 235.10203617 170.983049 240.80126953 178.31835938 C245.73658931 184.66783028 250.69850748 190.99591836 255.67333984 197.31445312 C257.95086206 200.20808827 260.22524007 203.10419323 262.5 206 C263.4166523 207.16667796 264.33331895 208.33334464 265.25 209.5 C289.08333333 239.83333333 312.91666667 270.16666667 336.75 300.5 C337.43026245 301.3657666 337.43026245 301.3657666 338.12426758 302.24902344 C339.04343313 303.41890016 339.96254095 304.58882223 340.8815918 305.75878906 C343.13456094 308.62671157 345.38843723 311.4939099 347.64453125 314.359375 C353.38308892 321.65071886 359.09063049 328.96555499 364.78149414 336.29418945 C369.03842224 341.77326978 373.3175068 347.23439424 377.625 352.67382812 C379.51548802 355.06902977 381.30592929 357.45889393 383 360 C383.04585263 322.8525356 383.0810573 285.70507548 383.10213066 248.55758847 C383.10463185 244.16453159 383.10722051 239.77147476 383.10986328 235.37841797 C383.1103879 234.50389881 383.11091252 233.62937966 383.11145304 232.72835992 C383.12013791 218.59821804 383.13589724 204.46809256 383.15430559 190.33796038 C383.17305816 175.82173518 383.18412802 161.30551853 383.18817699 146.78928173 C383.19091097 137.84364653 383.19952242 128.8980577 383.21583293 119.95243679 C383.22646606 113.80465485 383.22958642 107.65689662 383.22700275 101.50910617 C383.22573123 97.97072894 383.22757595 94.4324323 383.23841095 90.89406967 C383.72965613 50.2603225 383.72965613 50.2603225 365.265625 15.1171875 C359.32785726 9.56844592 352.75678067 4.50452045 346 0 C388.24 0 430.48 0 474 0 C472.515 0.99 472.515 0.99 471 2 C452.58243603 15.15150494 442.67600933 28.35976952 438.61328125 50.875 C436.98350577 61.37302638 436.84760219 71.77631295 436.84178162 82.37515259 C436.8372103 84.14094922 436.83220944 85.90674479 436.82681805 87.67253911 C436.81329244 92.50701372 436.80583482 97.34148132 436.79939139 102.17596984 C436.79136283 107.39602839 436.77767355 112.61607249 436.76467896 117.83612061 C436.74295097 126.87433035 436.72479308 135.91254158 436.70907402 144.9507637 C436.68634184 158.01844589 436.65820369 171.08611205 436.62875474 184.15378062 C436.58111984 205.35625682 436.53784456 226.55873958 436.49731445 247.76123047 C436.45793864 268.35498566 436.41650742 288.94873503 436.37231445 309.54248047 C436.36822804 311.44722979 436.36822804 311.44722979 436.36405908 313.3904589 C436.35037926 319.76096698 436.33665906 326.13147497 436.32291877 332.50198293 C436.20901844 385.33464313 436.10219487 438.16731595 436 491 C433.59561386 490.20792526 431.19201804 489.41357982 428.78881836 488.61791992 C428.11210838 488.395252 427.43539841 488.17258408 426.73818207 487.94316864 C421.86764261 486.32786924 417.17973487 484.54466128 412.5625 482.3125 C411.86495605 481.97855225 411.16741211 481.64460449 410.44873047 481.30053711 C398.2733942 475.32238403 387.18558086 467.96203995 377 459 C376.18402344 458.29359375 375.36804687 457.5871875 374.52734375 456.859375 C360.94412911 444.89064704 349.58340314 431.75187395 338.59765625 417.3828125 C334.57907762 412.13536196 330.47767905 406.95276922 326.38671875 401.76171875 C325.01582318 400.02010212 323.64800009 398.27612115 322.28125 396.53125 C317.55188713 390.49559305 312.79667719 384.48233799 308 378.5 C302.74365357 371.94437 297.5405794 365.34861504 292.35888672 358.73388672 C290.07546697 355.82033173 287.78749197 352.91035807 285.5 350 C284.58331177 348.83335027 283.6666451 347.66668361 282.75 346.5 C282.29625 345.9225 281.8425 345.345 281.375 344.75 C277.25 339.5 277.25 339.5 275.87524414 337.75024414 C274.95784991 336.5826959 274.04036933 335.41521551 273.12280273 334.24780273 C270.84155755 331.3451721 268.56178786 328.44140726 266.28515625 325.53515625 C262.08999658 320.18304902 257.8817142 314.84357675 253.61914062 309.54492188 C248.84763294 303.61328291 244.16472522 297.62655981 239.5625 291.5625 C234.73987865 285.2117051 229.78887441 278.9844471 224.73901367 272.81323242 C219.85764766 266.84498534 215.08822903 260.79431372 210.34277344 254.71777344 C208.06766067 251.80728372 205.7833163 248.90405504 203.5 246 C202.58329022 244.83336721 201.66662352 243.66670056 200.75 242.5 C200.29625 241.9225 199.8425 241.345 199.375 240.75 C195.25 235.5 195.25 235.5 193.87524414 233.75024414 C192.95784991 232.5826959 192.04036933 231.41521551 191.12280273 230.24780273 C188.84155755 227.3451721 186.56178786 224.44140726 184.28515625 221.53515625 C179.55387244 215.4986907 174.79781792 209.48376068 170 203.5 C164.74365357 196.94437 159.5405794 190.34861504 154.35888672 183.73388672 C152.07546697 180.82033173 149.78749197 177.91035807 147.5 175 C146.58331177 173.83335027 145.6666451 172.66668361 144.75 171.5 C144.29625 170.9225 143.8425 170.345 143.375 169.75 C139.25 164.5 139.25 164.5 137.87524414 162.75024414 C136.95784991 161.5826959 136.04036933 160.41521551 135.12280273 159.24780273 C132.84155755 156.3451721 130.56178786 153.44140726 128.28515625 150.53515625 C123.05798861 143.86601133 117.79239442 137.22975057 112.49169922 130.61889648 C106.03720347 122.56178236 99.6703651 114.43626093 93.33325195 106.28662109 C92.7076387 105.48211517 92.08202545 104.67760925 91.43745422 103.84872437 C90.96309433 103.23864532 90.48873444 102.62856628 90 102 C89.93119357 139.98815036 89.8784002 177.97629127 89.84680401 215.96449144 C89.84305231 220.45883098 89.8391693 224.9531704 89.83520508 229.44750977 C89.83441815 230.34217629 89.83363122 231.23684282 89.83282044 232.15862045 C89.81979962 246.60683918 89.79616428 261.05502175 89.76854161 275.50321909 C89.74039457 290.35055117 89.72380418 305.19786444 89.71773452 320.0452221 C89.71363727 329.19201994 89.7007408 338.33871556 89.6762506 347.4854819 C89.66027833 353.77485846 89.65562535 360.0641829 89.65949587 366.35357823 C89.66139974 369.97135074 89.65867689 373.58894583 89.64238358 377.20668602 C89.52467568 404.73211074 89.57267061 433.37163075 109.5546875 454.640625 C112.80388991 457.77563819 116.24367816 460.57733625 119.8359375 463.30859375 C122 465 122 465 125 468 C83.75 468 42.5 468 0 468 C2.65714933 465.34285067 4.78810195 463.31100955 7.75 461.1875 C24.6913944 448.58360547 31.89982711 433.90521986 35 413 C35.98092205 404.67320292 36.14398421 396.41984965 36.13371277 388.04246521 C36.13558476 386.65986652 36.137887 385.27726836 36.14057809 383.89467102 C36.1466547 380.12333999 36.14656741 376.35203126 36.14538372 372.58069646 C36.14517865 368.5021127 36.15070856 364.42353591 36.15544128 360.34495544 C36.16372602 352.36405059 36.16649515 344.38315312 36.16705366 336.40224432 C36.16752993 329.90952496 36.16959018 323.41680802 36.17275429 316.92408943 C36.18155549 298.48685022 36.18617459 280.04961682 36.18542381 261.61237549 C36.18538386 260.61969343 36.1853439 259.62701138 36.18530273 258.60424805 C36.18524141 257.11339136 36.18524141 257.11339136 36.18517885 255.59241635 C36.1847727 239.49714838 36.19433597 223.40190384 36.2084411 207.30664264 C36.22283388 190.75152415 36.22970967 174.19641706 36.22884732 157.64129215 C36.22851632 148.35843577 36.23122078 139.07560394 36.24202538 129.79275322 C36.25116871 121.88693452 36.2532744 113.9811515 36.24651595 106.07532977 C36.24326978 102.0487936 36.24312441 98.02232572 36.2518692 93.9957962 C36.83059632 50.04108715 36.83059632 50.04108715 15.92578125 12.84375 C11.05392939 8.00272238 5.70871246 3.8058083 0 0 Z " fill="#FFFFFF" transform="translate(1783,938)"/>
<path d="M0 0 C37.62 0 75.24 0 114 0 C119.1046875 12.7771875 119.1046875 12.7771875 124.3125 25.8125 C138.35990075 60.95025261 152.47319918 96.06149571 166.59023952 131.17131615 C168.83891882 136.7639048 171.08747428 142.35654322 173.3359375 147.94921875 C173.98991988 149.57586582 173.98991988 149.57586582 174.65711403 151.23537445 C179.43247517 163.11386278 184.20360789 174.99396511 188.953125 186.8828125 C194.31231908 200.29776638 199.69827504 213.70192647 205.0859375 227.10546875 C205.54049191 228.23633848 205.99504631 229.36720821 206.46337509 230.53234673 C210.24348589 239.93649094 214.02417991 249.34040068 217.80499268 258.7442627 C237.88843331 308.69721312 237.88843331 308.69721312 245.75 328.35546875 C246.03141594 329.05914141 246.31283188 329.76281406 246.60277557 330.48781013 C249.29344336 337.21687421 251.98028386 343.94744055 254.65869141 350.68139648 C273.37973102 399.21543235 273.37973102 399.21543235 301 443 C301.4640625 443.63035156 301.928125 444.26070312 302.40625 444.91015625 C309.17585261 453.64046693 319.56064188 460.47886601 329 466 C329.99 466.66 330.98 467.32 332 468 C283.16 468 234.32 468 184 468 C187.08322399 465.68758201 190.10895385 463.6468381 193.375 461.625 C203.38378517 455.33766874 203.38378517 455.33766874 208.5390625 444.95703125 C211.1393753 429.73755338 201.9955538 412.4022907 196.625 398.5625 C195.79241898 396.39654524 194.960651 394.2302778 194.12963867 392.0637207 C191.90058907 386.25972208 189.65978722 380.46033158 187.41607666 374.6619873 C185.97074889 370.92435636 184.52837032 367.18560228 183.08740234 363.44628906 C182.84451855 362.81601712 182.60163475 362.18574518 182.35139084 361.53637409 C181.85938623 360.25958828 181.3673933 358.98279797 180.87541199 357.70600319 C177.33263425 348.51234274 173.78494518 339.32060235 170.22937012 330.13188171 C168.55159009 325.79432387 166.87653444 321.45571913 165.20269775 317.11663818 C164.39524458 315.02422605 163.58692363 312.93214859 162.777771 310.84039307 C161.63364195 307.88055437 160.49392694 304.91905495 159.35546875 301.95703125 C158.84249992 300.63344856 158.84249992 300.63344856 158.31916809 299.28312683 C158.01170151 298.4804689 157.70423492 297.67781097 157.38745117 296.85083008 C157.11793137 296.15137772 156.84841156 295.45192535 156.57072449 294.73127747 C156 293 156 293 156 291 C96.6 291.33 37.2 291.66 -24 292 C-37.77226078 328.67178389 -37.77226078 328.67178389 -51.46337891 365.37402344 C-52.25399547 367.50160949 -53.04638198 369.62853847 -53.84033203 371.75488281 C-58.18854314 383.40206238 -62.45126056 395.0751447 -66.4609375 406.84375 C-66.95407944 408.26258484 -66.95407944 408.26258484 -67.45718384 409.71008301 C-71.78208034 422.60661429 -74.61733021 436.53263728 -69.3125 449.5 C-65.14544679 457.43724422 -57.44947093 461.50422057 -50 466 C-49.01 466.66 -48.02 467.32 -47 468 C-90.23 468 -133.46 468 -178 468 C-174.74756445 465.39805156 -171.55483528 462.96138631 -168.14135742 460.60229492 C-137.49317974 439.30742427 -125.16293395 405.81133312 -112.22536659 372.18816948 C-105.97141323 355.94581765 -99.54099225 339.77936761 -93.01409912 323.6451416 C-91.2124375 319.19133601 -89.41477838 314.73592021 -87.61767578 310.28027344 C-87.2981897 309.48818419 -86.97870361 308.69609493 -86.64953613 307.88000298 C-85.98826444 306.24052545 -85.32700207 304.60104417 -84.6657486 302.9615593 C-83.64127304 300.42177325 -82.61653793 297.88209206 -81.59173584 295.34243774 C-57.49784228 235.63027215 -33.5046739 175.87760133 -9.66956329 116.06166077 C-8.26269401 112.53184907 -6.85494454 109.0023896 -5.44696045 105.47302246 C-3.23312705 99.92308908 -1.02195578 94.37210224 1.18716049 88.82028961 C1.99233032 86.79774424 2.79827533 84.77550723 3.60510635 82.75362396 C7.45893227 73.0939103 11.2704879 63.42012687 14.91113281 53.67773438 C15.33748079 52.5510799 15.33748079 52.5510799 15.77244186 51.40166473 C20.0665683 39.77626072 23.42196959 26.72049095 18.5 14.8125 C14.5916252 7.79163764 7.34850137 3.65796858 0 1 C0 0.67 0 0.34 0 0 Z M65 59 C50.58018922 95.4463137 36.30562719 131.94904311 22.06347656 168.46508789 C18.43978144 177.75493788 14.81074374 187.04267747 11.17578125 196.328125 C10.76963593 197.36565918 10.3634906 198.40319336 9.94503784 199.47216797 C7.97243618 204.51098294 5.99928062 209.5495802 4.02539062 214.58789062 C2.31292539 218.95958314 0.6036456 223.33250874 -1.10345459 227.70629883 C-1.94197096 229.85153984 -2.78437724 231.99521514 -3.62744141 234.13867188 C-4.08683105 235.31494141 -4.5462207 236.49121094 -5.01953125 237.703125 C-5.40858643 238.69473633 -5.7976416 239.68634766 -6.19848633 240.70800781 C-7.1100332 242.90996596 -7.1100332 242.90996596 -7 245 C40.52 245 88.04 245 137 245 C136.26173151 241.30865755 135.50399937 238.41900558 134.16845703 234.97753906 C133.78865189 233.99295715 133.40884674 233.00837524 133.01753235 231.99395752 C132.6018248 230.92860779 132.18611725 229.86325806 131.7578125 228.765625 C131.32272873 227.64113953 130.88764496 226.51665405 130.43937683 225.35809326 C129.25270029 222.29339021 128.06244357 219.23010757 126.87057877 216.16741943 C125.61544835 212.93957609 124.36496967 209.70993163 123.11401367 206.48046875 C121.06498541 201.19239243 119.01331548 195.9053488 116.95947266 190.61914062 C114.29578881 183.76327297 111.63708695 176.90548396 108.98046875 170.046875 C104.72263334 159.05631714 100.4595352 148.06780653 96.19519043 137.07977295 C92.44168281 127.40771489 88.68918495 117.73526519 84.9375 108.0625 C84.53716553 107.03037384 84.13683105 105.99824768 83.72436523 104.93484497 C77.78991084 89.63331226 71.87131927 74.32588726 66 59 C65.67 59 65.34 59 65 59 Z " fill="#FFFFFF" transform="translate(1420,938)"/>
<path d="M0 0 C0.84615875 -0.00067474 1.6923175 -0.00134949 2.56411743 -0.00204468 C39.08522798 0.04369916 73.04597814 6.35524454 108.625 15.25 C108.625 41.98 108.625 68.71 108.625 96.25 C104.23643338 92.95857504 99.94391769 89.72348523 95.70825195 86.26904297 C60.97917053 58.17048043 17.44710426 47.38442875 -26.6875 51.875 C-49.63671068 55.36095605 -71.20013466 63.68849193 -86.55859375 81.77734375 C-96.54515385 95.37195137 -99.47963332 111.87665114 -97.06591797 128.36083984 C-93.7645504 145.8542933 -83.34579891 157.81515604 -69.1875 167.875 C-66.92886494 169.36129334 -64.66817504 170.82002566 -62.375 172.25 C-61.79282715 172.61738281 -61.2106543 172.98476562 -60.61083984 173.36328125 C-38.89943337 186.93947095 -15.48270205 197.82963664 7.7578125 208.47216797 C88.90831705 245.71501404 88.90831705 245.71501404 114.06640625 267.88085938 C115.4610747 269.10600046 116.88504551 270.29759598 118.3125 271.484375 C136.61208631 286.94010668 147.47807852 309.57422705 149.625 333.25 C151.89670263 367.94755324 140.54679235 401.28834285 117.78125 427.5859375 C114.8268651 430.90489772 111.75821192 434.10004347 108.625 437.25 C108.12661621 437.75241211 107.62823242 438.25482422 107.11474609 438.77246094 C87.12199545 458.65525469 62.46579739 472.80905443 35.625 481.25 C34.37614014 481.64759521 34.37614014 481.64759521 33.10205078 482.05322266 C7.84348362 489.92842711 -18.27490544 492.47574634 -44.625 492.4375 C-45.88038574 492.43609512 -45.88038574 492.43609512 -47.16113281 492.43466187 C-80.41853094 492.35435101 -113.38830364 488.42063586 -145.23101807 478.47143555 C-148.21405094 477.55208839 -151.19762421 476.84282443 -154.24720764 476.17996216 C-167.15560643 473.01674886 -167.15560643 473.01674886 -170.85118866 468.40974808 C-173.74263919 462.92652633 -174.78338142 456.8917714 -175.95703125 450.859375 C-176.39429995 448.94672604 -176.83906789 447.03577761 -177.29093933 445.12652588 C-178.45255171 440.12514722 -179.50710236 435.10690213 -180.54138184 430.07788086 C-181.61773523 424.95050992 -182.80288757 419.8484293 -183.97460938 414.7421875 C-185.66150665 407.29724421 -187.32077745 399.8472355 -188.87817383 392.37402344 C-189.04671371 391.59164307 -189.2152536 390.8092627 -189.38890076 390.00317383 C-190.0818411 386.60696069 -190.49070794 384.59712383 -189.375 381.25 C-188.73046875 381.94738281 -188.0859375 382.64476562 -187.421875 383.36328125 C-183.86387533 386.9125481 -179.77821195 389.63378875 -175.625 392.4375 C-174.78227539 393.00774902 -173.93955078 393.57799805 -173.07128906 394.16552734 C-125.01398287 426.38105361 -63.88149952 445.98051144 -5.7421875 435.15625 C-4.28518171 434.86038537 -2.82936948 434.55856307 -1.375 434.25 C-0.7037207 434.11078125 -0.03244141 433.9715625 0.65917969 433.828125 C23.848746 428.83166981 48.18381931 416.43474529 61.5703125 396.328125 C69.95420365 382.50698226 72.96068829 368.02018126 69.49755859 352.09130859 C63.68646773 328.39642877 47.4938596 312.44174194 27.15234375 300.109375 C6.36437597 287.91618697 -15.88948111 277.95927525 -37.76269531 267.91064453 C-117.17285256 231.40429892 -117.17285256 231.40429892 -144.375 205.25 C-145.01566406 204.6725 -145.65632813 204.095 -146.31640625 203.5 C-165.47734747 185.71722392 -176.61571969 157.34373521 -177.66015625 131.65234375 C-178.40551613 99.68439093 -168.3772053 72.56954741 -147.1328125 48.734375 C-110.06875165 9.90535888 -51.26155559 0.03719677 0 0 Z " fill="#FFFFFF" transform="translate(2499.375,925.75)"/>
<path d="M0 0 C44.88 0 89.76 0 136 0 C135.01 0.66 134.02 1.32 133 2 C117.58175801 12.52894076 110.95355676 23.16920367 107.43541217 41.50662589 C104.2030121 60.01686337 104.69024107 78.99892493 104.68332577 97.72077513 C104.67957906 101.93858027 104.66439866 106.15634778 104.65071106 110.37413025 C104.62859729 117.65563422 104.61348932 124.93712452 104.60334396 132.21865463 C104.58866563 142.74610402 104.56310416 153.27350569 104.53501268 163.80092682 C104.48970955 180.88712859 104.45302722 197.9733373 104.421875 215.05957031 C104.39162155 231.64259048 104.35724044 248.22559376 104.31738281 264.80859375 C104.31492126 265.83332731 104.31245972 266.85806087 104.30992357 267.91384695 C104.29754766 273.05539774 104.28509138 278.19694833 104.27259517 283.33849883 C104.16927454 325.89230894 104.07999043 368.44614006 104 411 C105.02377086 411.06679459 106.04754171 411.13358917 107.10233593 411.20240784 C108.46220302 411.29188728 109.82206777 411.3814023 111.18193054 411.47094727 C111.85471904 411.5147477 112.52750754 411.55854813 113.22068357 411.60367584 C118.35486331 411.94280826 123.46646297 412.39080495 128.58203125 412.9375 C130.27408079 413.1120543 131.96613834 413.28653106 133.65820312 413.4609375 C136.23103352 413.72932189 138.80371037 413.99907257 141.3762207 414.27050781 C159.58926077 416.18455616 177.68406841 417.23659206 196 417.25 C196.8431778 417.25067474 197.68635559 417.25134949 198.55508423 417.25204468 C248.50434646 417.18908664 287.83007917 401.57669262 329 374 C327.05873316 380.01073487 324.92718648 385.90774944 322.5859375 391.7734375 C322.25316803 392.61315094 321.92039856 393.45286438 321.57754517 394.31802368 C320.51232128 397.00459845 319.44379204 399.68984302 318.375 402.375 C317.71331004 404.04157472 317.05185094 405.70824112 316.390625 407.375 C313.92726122 413.58340392 311.46361309 419.79169501 309 426 C300.585 447.285 300.585 447.285 292 469 C195.64 469 99.28 469 0 469 C0.99 468.34 1.98 467.68 3 467 C18.33705001 456.52650431 25.10819344 445.86623716 28.5643239 427.59122169 C31.73574966 408.72888969 31.29372023 389.37824556 31.26144934 370.3142246 C31.25685047 366.27939747 31.26394469 362.24458632 31.26940918 358.20976257 C31.27822671 350.34057833 31.27641573 342.47143258 31.2705839 334.60224693 C31.26603729 328.19807542 31.26546734 321.79391457 31.26763153 315.3897419 C31.267938 314.47266363 31.26824446 313.55558536 31.26856022 312.61071684 C31.26919977 310.74676747 31.2698482 308.88281811 31.2705054 307.01886875 C31.27618622 289.60764779 31.26968612 272.19644801 31.25890467 254.78523052 C31.24996971 239.89579088 31.25152513 225.00638244 31.26074219 210.11694336 C31.27148217 192.75960849 31.27563868 175.40229209 31.26951766 158.04495436 C31.26888067 156.18878369 31.26825192 154.33261301 31.26763153 152.47644234 C31.26732298 151.56354559 31.26701443 150.65064885 31.26669653 149.71008856 C31.26498084 143.32460889 31.26786013 136.93914109 31.27259064 130.55366325 C31.27824106 122.75626216 31.27659657 114.95890126 31.26602915 107.16150468 C31.260828 103.19501916 31.25861881 99.22860027 31.26532745 95.26211548 C32.92813807 49.70335992 32.92813807 49.70335992 14.19140625 10.04296875 C10.76696178 6.85048309 6.99935085 4.40592112 3 2 C2.01 1.34 1.02 0.68 0 0 Z " fill="#FFFFFF" transform="translate(898,937)"/>
<path d="M0 0 C11.87372657 10.04587906 21.07243586 24.76524182 22.77734375 40.48828125 C23.8263152 58.02108971 20.64738475 74.61231123 8.91601562 88.33154297 C-3.69737919 102.24441904 -20.31969067 111.27076566 -39.1953125 112.63037109 C-59.40892065 113.57848557 -77.42401184 109.0988032 -93.09765625 95.86328125 C-105.03566447 84.26330903 -112.06672094 69.42599869 -112.51538086 52.67871094 C-112.68473965 34.45486911 -106.88025974 18.36099487 -94.08203125 5.05859375 C-69.01923233 -17.47053424 -27.00117454 -21.63519059 0 0 Z M-76.47265625 16.61328125 C-85.79394356 27.60905132 -86.96339626 40.61998211 -86.22265625 54.48828125 C-84.69492378 66.02395607 -80.06093414 77.58134877 -71.22265625 85.48828125 C-60.65265545 93.50344773 -50.499574 96.85592671 -37.22265625 95.48828125 C-25.07575559 93.04509782 -16.45344602 87.53411131 -9.22265625 77.48828125 C-1.60668371 64.15439786 -1.54523668 48.68036449 -5.38623047 34.13647461 C-8.41237298 23.77991684 -14.42969673 14.73928936 -23.67578125 8.953125 C-41.95750391 -0.66440701 -62.03556911 1.68955073 -76.47265625 16.61328125 Z " fill="#FFFFFF" transform="translate(1712.22265625,649.51171875)"/>
<path d="M0 0 C8.56805561 6.42253595 14.88446142 15.9189652 17.10546875 26.46875 C18.89401531 41.2242591 15.76573262 52.33052469 7.57421875 64.4765625 C-0.28194249 72.78164724 -10.42686893 78.23089802 -21.87890625 79.01171875 C-34.78587024 79.33299599 -45.35980516 76.37263156 -55.06640625 67.5625 C-63.58167323 58.68068179 -68.52088269 48.04046813 -68.64453125 35.66015625 C-68.05773478 23.23474096 -64.39435711 13.70318496 -55.61328125 4.7890625 C-39.68007943 -9.58060083 -18.07759875 -11.52198602 0 0 Z " fill="#FFFFFF" transform="translate(1584.61328125,808.2109375)"/>
<path d="M0 0 C7.38036673 5.53527505 12.25086199 14.64041729 14.67578125 23.45703125 C16.2936933 36.14691971 15.56489229 48.27382654 7.6875 58.8125 C6.48004983 60.2271609 5.25136321 61.62403071 4 63 C3.4534375 63.63808594 2.906875 64.27617188 2.34375 64.93359375 C-4.55324962 72.49752022 -13.85303186 76.38059609 -23.9296875 77.25390625 C-35.78221658 77.69446788 -46.86450606 74.76603659 -56 67 C-64.03551722 59.5332399 -69.56798202 50.14600233 -70.23828125 39.05859375 C-70.590496 24.55646585 -68.00521863 14.09199238 -58 3 C-40.9809836 -11.98897033 -18.34481442 -13.01490212 0 0 Z " fill="#FFFFFF" transform="translate(1456,811)"/>
<path d="M0 0 C0.85529297 -0.01224609 1.71058594 -0.02449219 2.59179688 -0.03710938 C8.09203975 -0.04969574 12.78180152 0.63939257 18.0625 2.1875 C12.29933566 9.07127963 6.17236528 15.61296859 0.0625 22.1875 C-1.13117188 21.70023438 -2.32484375 21.21296875 -3.5546875 20.7109375 C-10.11036423 18.26013629 -16.79669463 18.12186961 -23.4375 20.375 C-26.89721899 22.88329627 -29.44178128 25.24781194 -30.52319336 29.47924805 C-30.9676864 32.38482337 -31.14845908 35.20707434 -31.25390625 38.14453125 C-31.31674805 39.81225586 -31.31674805 39.81225586 -31.38085938 41.51367188 C-31.42017578 42.66416016 -31.45949219 43.81464844 -31.5 45 C-31.56477539 46.75473633 -31.56477539 46.75473633 -31.63085938 48.54492188 C-31.73668279 51.42567031 -31.83876825 54.30650123 -31.9375 57.1875 C-27.75641433 57.06880373 -23.57554212 56.94452727 -19.39477539 56.81518555 C-17.97392225 56.77200196 -16.55302274 56.73031592 -15.13208008 56.69018555 C-13.0840053 56.63207905 -11.03616035 56.56850362 -8.98828125 56.50390625 C-7.14230347 56.44891968 -7.14230347 56.44891968 -5.2590332 56.39282227 C-1.63315715 56.24384194 -1.63315715 56.24384194 3.0625 55.1875 C3.0625 62.7775 3.0625 70.3675 3.0625 78.1875 C2.7325 77.5275 2.4025 76.8675 2.0625 76.1875 C-1.83974461 75.08155917 -5.73284983 74.99557291 -9.76953125 74.87109375 C-11.06181641 74.82919922 -12.35410156 74.78730469 -13.68554688 74.74414062 C-15.04036192 74.70433648 -16.39517967 74.66462409 -17.75 74.625 C-19.12436105 74.58176277 -20.49871024 74.53814688 -21.87304688 74.49414062 C-25.22776669 74.3882021 -28.5825586 74.28612811 -31.9375 74.1875 C-31.85291975 84.85403852 -31.75796831 95.52043036 -31.64997292 106.186759 C-31.60014172 111.14018419 -31.55381098 116.0935894 -31.515625 121.04711914 C-31.47860518 125.8323526 -31.43220093 130.61741341 -31.37943649 135.40249825 C-31.36098092 137.22319049 -31.34584077 139.04391961 -31.33415604 140.86466789 C-31.31714132 143.4255 -31.2880716 145.98594428 -31.25634766 148.54663086 C-31.25418747 149.29038467 -31.25202728 150.03413849 -31.24980164 150.8004303 C-31.12109612 158.99473932 -29.80074434 165.54106606 -24.9375 172.1875 C-24.9375 172.8475 -24.9375 173.5075 -24.9375 174.1875 C-23.6175 174.8475 -22.2975 175.5075 -20.9375 176.1875 C-35.7875 176.1875 -50.6375 176.1875 -65.9375 176.1875 C-63.4625 174.2075 -63.4625 174.2075 -60.9375 172.1875 C-56.92725271 166.4585753 -56.78031162 161.40316241 -56.73217773 154.56347656 C-56.71732834 153.26049873 -56.71732834 153.26049873 -56.70217896 151.93119812 C-56.67062272 149.06353469 -56.64582973 146.1958547 -56.62109375 143.328125 C-56.60051915 141.33843559 -56.57952255 139.34875051 -56.55812073 137.35906982 C-56.50295232 132.12468976 -56.45351995 126.89027059 -56.40527344 121.65582275 C-56.35502024 116.31348189 -56.2993541 110.97119775 -56.24414062 105.62890625 C-56.13662302 95.14848597 -56.03516382 84.66801641 -55.9375 74.1875 C-60.2275 74.1875 -64.5175 74.1875 -68.9375 74.1875 C-63.43817101 65.6766337 -63.43817101 65.6766337 -61.41186523 63.69702148 C-57.11197295 59.3971292 -56.28103518 56.27201525 -56.20117188 50.24023438 C-56.21728516 49.29470703 -56.23339844 48.34917969 -56.25 47.375 C-56.31200251 34.54047981 -53.87754809 24.55299165 -44.8984375 15.0234375 C-32.41735539 3.24799961 -16.70973333 0.01253543 0 0 Z " fill="#FFFFFF" transform="translate(1821.9375,582.8125)"/>
<path d="" fill="#FFFFFF" transform="translate(0,0)"/>
<path d="" fill="#FFFFFF" transform="translate(0,0)"/>
<path d="" fill="#FFFFFF" transform="translate(0,0)"/>
<path d="" fill="#FFFFFF" transform="translate(0,0)"/>
</svg>
