<svg width="28" height="11" viewBox="0 0 28 11" fill="none" xmlns="http://www.w3.org/2000/svg">
<path d="M0 3.99998C0 3.4477 0.447715 2.99998 1 2.99998C1.55228 2.99998 2 3.4477 2 3.99998V6.99998C2 7.55227 1.55228 7.99998 1 7.99998C0.447715 7.99998 0 7.55227 0 6.99998V3.99998Z" fill="#B7B7B7"/>
<path d="M4 3.99998C4 3.4477 4.44772 2.99998 5 2.99998H6C6.55228 2.99998 7 3.4477 7 3.99998V6.99998C7 7.55227 6.55228 7.99998 6 7.99998H5C4.44772 7.99998 4 7.55227 4 6.99998V3.99998Z" fill="#B7B7B7"/>
<path d="M9 3.99998C9 3.4477 9.44772 2.99998 10 2.99998H22C22.5523 2.99998 23 3.4477 23 3.99998V6.99998C23 7.55227 22.5523 7.99998 22 7.99998H10C9.44772 7.99998 9 7.55227 9 6.99998V3.99998Z" fill="#B7B7B7"/>
<path d="M20.1652 1.06867C20.1008 0.195628 21.1098 -0.332905 21.7908 0.217187L27.0111 4.43399C27.5066 4.83424 27.5066 5.58956 27.0111 5.98981L21.7908 10.2066C21.1098 10.7567 20.1008 10.2282 20.1652 9.35513L20.4654 5.28547C20.469 5.23649 20.469 5.18731 20.4654 5.13832L20.1652 1.06867Z" fill="#B7B7B7"/>
</svg>
