<svg width="297" height="297" viewBox="0 0 297 297" fill="none" xmlns="http://www.w3.org/2000/svg">
<path d="M139.081 164.152H69L78.7962 173.696H136.055L139.081 164.152Z" fill="#BDAF27"/>
<path d="M218.957 120.835L107.431 264H123.256L228 126.709L218.957 120.835Z" fill="#BDAF27"/>
<path d="M211.422 32L157.166 120.835H172.991L222.725 39.3418L211.422 32Z" fill="#BDAF27"/>
<path fill-rule="evenodd" clip-rule="evenodd" d="M157.166 120.835L211.422 32H145.863L123.256 75.3165L69 164.152H139.081L136.055 173.696L107.431 264L218.957 120.835H172.991H157.166ZM149.945 39.3418H184.636L136.055 134.225H168.014L97.9091 146.55L149.945 39.3418ZM139.081 209.625L168.014 146.55L189.695 137.85L139.081 209.625Z" fill="#FFE921"/>
<path d="M168.014 146.55L139.081 209.625L189.695 137.85L168.014 146.55Z" fill="#FFF178"/>
<path d="M149.945 39.3418H184.636L136.055 134.225H168.014L97.9091 146.55L149.945 39.3418Z" fill="#FFF178"/>
</svg>
