<svg width="297" height="297" viewBox="0 0 297 297" fill="none" xmlns="http://www.w3.org/2000/svg">
<path d="M86.1932 88.5001L121.473 97.673L138.391 95.327L139.367 88.5001H86.1932Z" fill="#E24242"/>
<path d="M145.727 101.85H141.593H137.459L138.391 95.327L121.473 97.673L86.1932 88.5001C97.6194 109.462 107.026 115.11 129.19 114.088L166.674 97.673L187.621 88.5001L149.311 93.8126L145.727 101.85Z" fill="#962525"/>
<path d="M187.621 88.5001H151.681L149.311 93.8126L187.621 88.5001Z" fill="#E24242"/>
<path d="M235.029 82.0501C233.963 81.6596 232.861 81.2896 231.721 80.9403C230.132 80.4536 228.468 80.0069 226.722 79.6001L223.081 83.5367C227.441 85.0698 231.398 86.7162 235.072 88.5264L238.336 83.3787C237.273 82.912 236.172 82.4692 235.029 82.0501Z" fill="#82A92F"/>
<path fill-rule="evenodd" clip-rule="evenodd" d="M129.19 114.088C107.026 115.11 97.6194 109.462 86.1932 88.5001C76.4115 92.4913 68.1891 96.977 61.3189 101.85C58.2182 113.717 52.568 138.539 54.773 142.896C52.8814 140.686 46.8184 131.431 42.8219 125.213L60.062 102.757C51.8254 108.802 45.6107 115.422 41.0342 122.418C36.7487 128.969 33.8996 135.85 32.1717 142.896C58.1431 193.678 77.2105 203.326 114.858 205.313L166.674 190.85L215.361 167.488C219.877 136.917 207.398 107.735 166.674 97.673L129.19 114.088Z" fill="#E24242"/>
<path d="M54.773 142.896C52.568 138.539 58.2182 113.717 61.3189 101.85C60.8948 102.151 60.4758 102.453 60.062 102.757L42.8219 125.213C46.8184 131.431 52.8814 140.686 54.773 142.896Z" fill="#FEF9DD"/>
<path d="M155.649 79.6001L165.572 57.35C161.649 58.39 158.593 58.5414 155.901 57.35L141.593 101.85H145.727L149.311 93.8126L151.681 88.5001L155.649 79.6001Z" fill="#B88850"/>
<path d="M165.572 57.35L145.727 44C149.28 51.6628 152.256 55.7371 155.901 57.35C158.593 58.5414 161.649 58.39 165.572 57.35Z" fill="#5C4730"/>
<path d="M145.727 44L142.547 66.2501L139.367 88.5001L138.391 95.327L137.459 101.85H141.593L155.901 57.35C152.256 55.7371 149.28 51.6628 145.727 44Z" fill="#CA9960"/>
<path d="M86.1932 250.926C103.315 254.994 112.754 253.603 129.19 242.025L145.727 227.563L165.572 250.926C195.822 236.944 210.495 200.427 215.361 167.488L166.674 190.85L114.858 205.313C77.2105 203.326 58.1431 193.678 32.1717 142.896C28.9438 156.06 29.6286 169.804 32.1717 183.063C38.7862 217.55 86.1932 250.926 86.1932 250.926Z" fill="#D64040"/>
<path d="M129.19 242.025C140.967 245.241 159.074 249.441 165.572 250.926L145.727 227.563L129.19 242.025Z" fill="#962525"/>
<path d="M249.36 57.35L176.739 74.0376V76.8188C184.152 76.5043 190.875 76.3988 196.993 76.5045C205.177 76.6458 212.276 77.165 218.491 78.0668C221.425 78.4925 224.161 79.0034 226.722 79.6001C228.468 80.0069 230.132 80.4536 231.721 80.9403L242.746 65.6938L235.029 82.0501C236.172 82.4692 237.273 82.912 238.336 83.3787C239.885 84.059 241.352 84.7901 242.746 85.5721C244.364 86.4794 245.883 87.4553 247.32 88.5001C246.307 83.3401 248.258 78.5626 249.36 76.8188V90.0746C250.79 91.244 252.135 92.4899 253.414 93.8126C258.678 99.2586 262.808 106.007 267 114.088V88.5001L249.36 57.35Z" fill="#A6CE51"/>
<path d="M176.739 74.0376L155.649 79.6001H176.739V76.8188V74.0376Z" fill="#A6CE51"/>
<path d="M238.336 101.85L267 114.088C260.326 106.705 254.202 100.825 247.466 95.9649L242.746 97.673L244.589 93.9766C242.257 92.4342 239.837 90.9995 237.285 89.6541L231.721 93.8126L235.072 88.5264C231.398 86.7162 227.441 85.0698 223.081 83.5367L218.491 88.5001V82.0108C212.23 80.0415 205.162 78.247 196.993 76.5045C190.875 76.3988 184.152 76.5043 176.739 76.8188V79.6001L238.336 101.85Z" fill="#92BE34"/>
<path d="M218.491 78.0668C212.276 77.165 205.177 76.6458 196.993 76.5045C205.162 78.247 212.23 80.0415 218.491 82.0108V78.0668Z" fill="#82A92F"/>
<path d="M226.722 79.6001C224.161 79.0034 221.425 78.4925 218.491 78.0668V82.0108V88.5001L223.081 83.5367L226.722 79.6001Z" fill="#C1E476" fill-opacity="0.894118"/>
<path d="M247.32 88.5001C245.883 87.4553 244.364 86.4794 242.746 85.5721L237.285 89.6541C239.837 90.9995 242.257 92.4342 244.589 93.9766L247.32 88.5001Z" fill="#82A92F"/>
<path d="M242.746 85.5721C241.352 84.7901 239.885 84.059 238.336 83.3787L235.072 88.5264L231.721 93.8126L237.285 89.6541L242.746 85.5721Z" fill="#C1E476"/>
<path d="M249.36 90.0746C248.699 89.5334 248.019 89.0086 247.32 88.5001L244.589 93.9766L242.746 97.673L247.466 95.9649L253.414 93.8126C252.135 92.4899 250.79 91.244 249.36 90.0746Z" fill="#C1E476"/>
<path d="M267 114.088C262.808 106.007 258.678 99.2586 253.414 93.8126L247.466 95.9649C254.202 100.825 260.326 106.705 267 114.088Z" fill="#82A92F"/>
<path d="M249.36 76.8188C248.258 78.5626 246.307 83.3401 247.32 88.5001C248.019 89.0086 248.699 89.5334 249.36 90.0746V76.8188Z" fill="#C1E476"/>
<path d="M242.746 65.6938L231.721 80.9403C232.861 81.2896 233.963 81.6596 235.029 82.0501L242.746 65.6938Z" fill="#C1E476"/>
<path fill-rule="evenodd" clip-rule="evenodd" d="M135.805 130.775L108.243 183.063L104.66 180.377L101.077 167.488V177.69L92.8085 147.843V171.491L78.5666 160.813V119.65L86.1932 121.133V130.775L92.8085 122.418L107.186 125.213L104.66 142.896L114.858 126.704L135.805 130.775Z" fill="#FEF9DD"/>
<path fill-rule="evenodd" clip-rule="evenodd" d="M237.847 130.775C239.438 139.119 239.419 148.962 238.336 160.813C225.991 213.068 212.345 226.983 187.621 250.926C183.158 251.253 180.6 251.678 178.707 251.993C174.947 252.619 173.809 252.808 165.572 250.926C195.822 236.944 210.495 200.427 215.361 167.488C219.877 136.917 207.398 107.735 166.674 97.673L187.621 88.5001L237.847 130.775Z" fill="#CB3838"/>
<path d="M187.621 88.5001C219.955 98.5286 233.888 110.01 237.847 130.775L187.621 88.5001Z" fill="#B61C1C" fill-opacity="0.894118"/>
</svg>
