<svg xmlns="http://www.w3.org/2000/svg" height="24" viewBox="0 -960 960 960" width="24" fill="#F0F0F0"><path d="M132.13-105.326v-378.522l-52.195 40.196-64.913-87.87L132.13-621.48v-139.868h109.587v56.326L479-885.304l465.739 352.021-66.152 87.631-52.957-39.718v380.044H532.957v-269.348H423.37v269.348H132.13Zm0-696.022q.718-68.77 49.101-117.733 48.383-48.963 117.073-48.963 24.28 0 40.814-16.624 16.534-16.622 16.534-39.962h109.827q-.718 68.869-49.482 117.782-48.763 48.913-117.586 48.913-23.468 0-39.961 16.696-16.493 16.695-16.493 39.891H132.13Z"/></svg>