<svg xmlns="http://www.w3.org/2000/svg" height="40" viewBox="0 -960 960 960" width="40" fill="#F0F0F0"><path d="M141.717-220.826q-19.188 0-32.075-13.164-12.888-13.163-12.888-31.865 0-18.782 12.888-31.587 12.887-12.804 32.075-12.804h677.232q18.539 0 31.498 12.921 12.958 12.922 12.958 31.703 0 18.703-12.958 31.749-12.959 13.047-31.498 13.047H141.717Zm0-214.971q-19.188 0-32.075-13.164-12.888-13.164-12.888-31.706 0-18.782 12.888-31.586 12.887-12.805 32.075-12.805h677.232q18.539 0 31.498 12.922 12.958 12.921 12.958 31.703 0 18.542-12.958 31.589-12.959 13.047-31.498 13.047H141.717Zm0-215.051q-19.188 0-32.075-13.044-12.888-13.044-12.888-31.986 0-18.542 12.888-31.466 12.887-12.924 32.075-12.924h677.232q18.539 0 31.498 13.041 12.958 13.041 12.958 31.583 0 18.942-12.958 31.869-12.959 12.927-31.498 12.927H141.717Z"/></svg>