<svg width="297" height="297" viewBox="0 0 297 297" fill="none" xmlns="http://www.w3.org/2000/svg">
<path d="M194.151 230.098H248L194.151 164.995V230.098Z" fill="#A7A7A7"/>
<path d="M194.151 146.027H166.812V188.062V230.098H194.151V164.995V146.027Z" fill="#C2C2C6"/>
<path d="M248 254V230.098H194.151H166.812H115.448V254H248Z" fill="#C2C2C6"/>
<path d="M115.448 230.098H166.812L101.364 150.973H50L115.448 230.098Z" fill="#DDDDDD"/>
<path d="M115.448 254V230.098L50 150.973V174.875L115.448 254Z" fill="#E9E9E9"/>
<path d="M115.448 146.027V122.125L50 43V66.9023L101.364 129L115.448 146.027Z" fill="#E9E9E9"/>
<path fill-rule="evenodd" clip-rule="evenodd" d="M166.812 146.027V188.062L101.364 150.973V129L115.448 146.027H166.812Z" fill="#C8C8C8"/>
<path d="M101.364 150.973L166.812 230.098V188.062L101.364 150.973Z" fill="#D2D2D2"/>
<path d="M194.151 146.027H248V122.125H221.49H210.72H115.448V146.027H166.812H194.151Z" fill="#C2C2C6"/>
<path d="M50 43L115.448 122.125H210.72H221.49H248L182.552 43H119.59H108.82H72.3682H50Z" fill="#DDDDDD"/>
</svg>
