<svg width="297" height="297" viewBox="0 0 297 297" fill="none" xmlns="http://www.w3.org/2000/svg">
<g clip-path="url(#clip0_175_277)">
<path d="M22.9904 221.41L276.529 206.315L266.59 204.057L21.3562 217.362L22.9904 221.41Z" fill="#3C6E25"/>
<path d="M218.882 193.221L9.9164 189.021L12.1635 194.588L16.3206 194.617L121.983 195.372L231.803 196.156L218.882 193.221Z" fill="#4F9030"/>
<path d="M231.803 196.156L121.983 195.372L14.2063 199.649L16.0449 204.203L231.803 196.156Z" fill="#4F9030"/>
<path d="M21.3562 217.362L266.59 204.057L255.749 201.595L20.3348 214.831L21.3562 217.362Z" fill="#4F9030"/>
<path d="M236.773 197.285L179.63 201.406L243.776 198.876L236.773 197.285Z" fill="#3C6E25"/>
<path d="M19.4004 212.516L23.255 212.215L119.511 204.679L18.3645 208.337L17.7227 208.36L19.4004 212.516Z" fill="#3C6E25"/>
<path fill-rule="evenodd" clip-rule="evenodd" d="M16.3206 194.617L14.2063 199.649L121.983 195.372L16.3206 194.617Z" fill="#3C6E25"/>
<path fill-rule="evenodd" clip-rule="evenodd" d="M231.803 196.156L16.0449 204.203L17.0698 206.743L18.3645 208.337L119.511 204.679L23.255 212.215L20.3348 214.831L255.749 201.595L243.776 198.876L179.63 201.406L236.773 197.285L231.803 196.156Z" fill="#66AD44"/>
<path fill-rule="evenodd" clip-rule="evenodd" d="M16.0449 204.203L17.0698 206.743L14.9828 204.173L16.0449 204.203Z" fill="#66AD44"/>
<path d="M290.399 176.268L19.9781 117.468L21.9345 119.011L289.909 177.567L285.906 175.952L290.399 176.268Z" fill="#3C6E25"/>
<path d="M287.928 183.513L289.909 177.567L21.9345 119.011L19.6082 118.503L18.3967 122.448L287.928 183.513Z" fill="#4F9030"/>
<path d="M287.928 183.513L18.3967 122.448L17.8519 124.222L71.4156 137.768L19.3717 126.723L17.2239 126.268L16.396 128.964L285.415 191.054L285.477 190.866L286.982 186.35L173.841 159.222L282.676 183.92L287.928 183.513Z" fill="#66AD44"/>
<path d="M286.982 186.35L287.432 184.999L282.676 183.92L173.841 159.222L286.982 186.35Z" fill="#3C6E25"/>
<path d="M16.396 128.964L15.5682 131.66L170.954 172.645L14.1979 136.122L12.6754 141.08L281.449 202.953L282.896 198.612L180.407 174.417L284.068 195.096L285.415 191.054L16.396 128.964Z" fill="#4F9030"/>
<path d="M284.068 195.096L180.407 174.417L282.896 198.612L284.068 195.096Z" fill="#3C6E25"/>
<path d="M281.449 202.953L12.6754 141.08L13.9704 144.031L276.591 204.177L281.449 202.953Z" fill="#5B9E3C"/>
<path d="M276.529 206.315L280.003 207.295L280.726 205.124L276.591 204.177L13.9704 144.031L11.9141 143.56L11.1529 146.039L11.8383 146.194L17.1761 147.716L33.5556 151.365L33.7145 151.4L36.1996 151.954L39.1333 152.608L40.9165 153.005L43.1317 153.498L45.1221 153.942L46.8395 154.324L48.4724 154.688L52.2069 155.52L53.9503 155.909L55.4439 156.241L56.8229 156.549L57.8572 156.779L59.2363 157.086L60.7876 157.432L65.0972 158.392L70.7859 159.66L84.2054 162.649L125.948 172.201L141.355 175.669L150.797 177.794L169.268 181.952L194.531 187.69L218.882 193.221L231.803 196.156L236.773 197.285L243.776 198.876L255.749 201.595L266.59 204.057L276.529 206.315Z" fill="#3C6E25"/>
<path d="M71.4156 137.768L17.8519 124.222L19.3717 126.723L71.4156 137.768Z" fill="#3C6E25"/>
<path d="M15.5682 131.66L14.1979 136.122L170.954 172.645L15.5682 131.66Z" fill="#3C6E25"/>
<path fill-rule="evenodd" clip-rule="evenodd" d="M78.2197 75.1254C61.856 91.3383 52.3402 99.2077 35.13 112.402L284.815 169.105C283.734 151.381 284.801 141.117 289.691 122.226L184.908 98.8879L78.2197 75.1254ZM42.1559 111.603C57.878 99.709 66.3088 92.6291 79.6328 78.1673L151.167 94.4758L180.857 101.245L181.17 101.316L181.441 101.379L185.159 102.24L207.222 107.348L283.69 125.054C279.406 140.62 278.143 149.329 277.721 164.899L183.971 143.543L164.62 138.98L160.446 137.995L159.447 137.956L132.618 131.929L42.1559 111.603Z" fill="#8EC558"/>
<path d="M181.441 101.379C182.745 101.683 183.999 102.009 185.201 102.355C222.16 112.989 211.462 142.484 172.895 139.959C170.264 139.787 167.503 139.466 164.62 138.98C162.937 138.696 161.212 138.356 159.447 137.956L160.446 137.995L164.62 138.98L183.971 143.543C212.15 141.45 224.238 120.164 207.222 107.348L185.159 102.24L181.441 101.379Z" fill="#8EC558"/>
<path d="M151.167 94.4758C128.154 98.5046 117.575 120.391 132.618 131.929L159.447 137.956C156.541 137.299 153.898 136.521 151.51 135.644C150.473 135.264 149.484 134.865 148.543 134.449C124.587 123.863 131.258 102.388 157.835 99.538C159.018 99.4112 160.24 99.3212 161.5 99.2708C164.41 99.1542 167.524 99.2481 170.832 99.5842C174 99.9061 177.345 100.45 180.857 101.245L151.167 94.4758Z" fill="#8EC558"/>
<path d="M12.6754 141.08L14.1979 136.122L11.4404 136.043L11.9141 143.56L13.9704 144.031L12.6754 141.08Z" fill="#8EC558"/>
<path d="M11.8383 146.194L16.1553 183.201L194.531 187.69L169.268 181.952L143.201 181.053L128.209 180.535L116.716 180.139L93.7293 179.345L21.4274 176.85L17.1761 147.716L11.8383 146.194Z" fill="#8EC558"/>
<path d="M116.716 180.139C108.721 179.863 90.8756 174.217 84.2054 162.649L70.7859 159.66C75.5796 166.903 83.8252 175.868 93.7293 179.345L116.716 180.139Z" fill="#8EC558"/>
<path d="M141.355 175.669C137.275 178.571 134.315 179.561 128.209 180.535L143.201 181.053C147.957 179.945 150.434 179.305 150.797 177.794L141.355 175.669Z" fill="#8EC558"/>
<path d="M167.98 119.54L167.951 120.54L170.026 127.603C170.805 126.477 171.086 125.793 170.349 124.11L168.479 119.555L167.98 119.54Z" fill="#719F44"/>
<path fill-rule="evenodd" clip-rule="evenodd" d="M181.503 118.929L183.017 118.472L181.081 113.915C179.598 114.494 178.488 114.864 177.614 114.994L174.563 116.729C173.458 116.452 172.587 116.216 171.588 115.81C171.211 115.656 170.815 115.479 170.381 115.265C170.273 115.212 170.162 115.156 170.048 115.098C169.489 114.812 168.864 114.467 168.138 114.043L167.98 119.54L168.479 119.555L170.349 124.11C171.086 125.793 170.805 126.477 170.026 127.603L167.951 120.54C167.425 120.959 167.124 121.159 166.452 120.497L163.453 120.411L161.968 119.868L160.012 118.311C159.428 118.4 159.168 118.288 159.041 117.283C157.359 117.407 156.675 117.864 155.799 119.19C155.657 119.384 155.521 119.568 155.391 119.744L155.388 119.748C154.412 121.069 153.753 121.96 153.365 123.322L153.399 122.122C154.055 119.472 154.818 118.364 156.958 117.223C159.097 116.081 159.041 117.283 159.041 117.283L160.583 115.826L163.697 111.914L162.698 111.885L161.705 111.607L160.713 111.328L157.757 109.742L156.315 107.7C155.684 107.862 155.605 107.056 155.916 104.187L154.845 106.657L154.559 107.9L154.273 109.142L152.282 114.587L151.92 115.577L151.015 118.052L150.415 121.536L150.771 126.549L151.206 128.812L151.641 131.075L154.582 133.161L158.538 134.775L161.522 135.361L170.019 135.606L173.046 134.692L176.232 128.281L179.475 119.871L181.503 118.929ZM169.278 126.581L167.764 127.037L163.251 127.408L156.326 124.707L155.413 121.68L159.397 122.295L164.837 124.452L167.094 125.896L168.782 126.441L169.278 126.581ZM151.882 122.703C152.191 120.819 152.414 119.753 154.029 117.639L152.544 117.096L151.882 122.703ZM167.12 132.021C169.708 129.458 171.118 127.978 172.839 124.498L172.262 127.167L167.12 132.021ZM161.637 131.363C159.419 129.829 158.044 129.232 155.204 128.927C156.708 128.763 157.534 128.695 158.874 128.782C160.376 129.457 160.77 130.055 161.334 130.911C161.428 131.054 161.527 131.204 161.637 131.363ZM173.556 128.705C174.304 126.574 174.583 125.376 174.876 123.24C175.2 124.145 175.301 124.736 175.297 125.986C174.774 127.549 174.362 128.05 173.556 128.705Z" fill="#8EC558"/>
<path d="M160.012 118.311C161.329 118.484 161.684 118.882 161.968 119.868L163.453 120.411L163.459 120.407C164.717 119.768 165.425 119.407 166.452 120.497C167.124 121.159 167.425 120.959 167.951 120.54L167.98 119.54L167.023 118.012L166.567 116.499L167.667 113.029C168.491 112.399 169.456 111.84 170.486 111.609L170.987 110.623L173.706 110.701C173.646 110.362 173.583 110.03 173.515 109.696C169.015 104.56 166.025 103.058 159.37 104.287C158.612 104.955 157.874 105.727 157.169 106.589L158.358 106.258L160.857 106.33L162.993 107.392L162.95 108.891C163.51 109.352 163.883 109.824 164.24 110.429L164.697 111.943L162.597 115.384L160.583 115.826L159.041 117.283C159.168 118.288 159.428 118.4 160.012 118.311Z" fill="#81B64D"/>
<path d="M174.876 123.24C174.583 125.376 174.304 126.574 173.556 128.705C174.362 128.05 174.774 127.549 175.297 125.986C175.301 124.736 175.2 124.145 174.876 123.24Z" fill="#719F44"/>
<path d="M156.958 117.223C154.818 118.364 154.055 119.472 153.399 122.122L153.365 123.322C153.753 121.96 154.412 121.069 155.388 119.748L155.391 119.744C155.521 119.568 155.657 119.384 155.799 119.19C156.675 117.864 157.359 117.407 159.041 117.283C159.041 117.283 159.097 116.081 156.958 117.223Z" fill="#719F44"/>
<path d="M170.967 102.619C174.046 105.856 174.51 108.804 175.135 114.244C175.764 114.932 176.495 115.16 177.614 114.994C178.488 114.864 179.598 114.494 181.081 113.915C180.931 113.37 180.783 112.871 180.624 112.401C179.979 110.497 179.726 108.856 177.92 106.61C175.462 102.234 171.624 101.513 166.041 99.9767C161.443 99.6941 159.229 100.626 155.916 104.187C155.605 107.056 155.684 107.862 156.315 107.7C157.781 104.092 158.929 102.55 162 101.361C165.994 100.046 168.382 100.24 170.967 102.619Z" fill="#61972C"/>
<path d="M181.17 101.316L180.857 101.245C177.345 100.45 174 99.9061 170.832 99.5842C167.524 99.2481 164.41 99.1542 161.5 99.2708C160.384 99.3293 159.189 99.4192 157.835 99.538L154.845 106.657L155.916 104.187C159.229 100.626 161.443 99.6941 166.041 99.9767C171.624 101.513 175.462 102.234 177.92 106.61C179.726 108.856 179.979 110.497 180.624 112.401L185.613 103.475L185.201 102.355C183.999 102.009 182.745 101.683 181.441 101.379L181.17 101.316Z" fill="#6DA436"/>
<path d="M172.779 106.673C169.395 99.9908 163.994 100.215 159.37 104.287C166.025 103.058 169.015 104.56 173.515 109.696C173.325 108.767 173.094 107.824 172.779 106.673Z" fill="#6EA23C"/>
<path d="M175.135 114.244C174.51 108.804 174.046 105.856 170.967 102.619C168.382 100.24 165.994 100.046 162 101.361C158.929 102.55 157.781 104.092 156.315 107.7C156.594 107.315 156.878 106.944 157.169 106.589C157.874 105.727 158.612 104.955 159.37 104.287C163.994 100.215 169.395 99.9908 172.779 106.673C173.094 107.824 173.325 108.767 173.515 109.696C173.583 110.03 173.646 110.362 173.706 110.701C173.763 111.027 173.818 111.36 173.871 111.707C173.92 112.027 173.968 112.36 174.016 112.711C174.06 113.029 174.104 113.362 174.15 113.715L175.135 114.244Z" fill="#49751E"/>
<path d="M180.664 128.409C179.405 129.486 178.945 129.499 178.202 129.338L177.217 128.81L172.895 139.959C211.462 142.484 222.16 112.989 185.201 102.355L185.613 103.475L186.317 108.063L183.516 118.487L183.514 118.557C185.045 118.841 185.513 119.182 185.472 120.044C185.554 121.458 185.321 122.09 184.561 123.019L180.664 128.409Z" fill="#66AD44"/>
<path d="M181.081 113.915L183.017 118.472C183.194 118.5 183.36 118.529 183.514 118.557L183.516 118.487L186.317 108.063L185.613 103.475L180.624 112.401C180.783 112.871 180.931 113.37 181.081 113.915Z" fill="#5E9825"/>
<path d="M157.829 107.244L160.328 107.315C161.549 107.925 162.355 108.401 162.95 108.891L162.993 107.392L160.857 106.33L158.358 106.258L157.169 106.589C156.878 106.944 156.594 107.315 156.315 107.7L157.829 107.244Z" fill="#455F2C"/>
<path d="M164.697 111.943L164.24 110.429C163.883 109.824 163.51 109.352 162.95 108.891C162.355 108.401 161.549 107.925 160.328 107.315L157.829 107.244L156.315 107.7L157.757 109.742L158.786 108.772L161.27 109.343L161.756 109.858L162.241 110.372L163.697 111.914L164.697 111.943Z" fill="#72A243"/>
<path d="M161.27 109.343L158.786 108.772L157.757 109.742L158.761 109.628L160.768 109.4L161.27 109.343Z" fill="#6E9B43"/>
<path d="M158.761 109.628L157.757 109.742L160.713 111.328L159.978 110.807L159.242 110.285L158.761 109.628Z" fill="#72A243"/>
<path d="M160.583 115.826L162.597 115.384L164.697 111.943L163.697 111.914L160.583 115.826Z" fill="#83C048"/>
<path d="M175.135 114.244L174.15 113.715C174.104 113.362 174.06 113.029 174.016 112.711C173.968 112.36 173.92 112.027 173.871 111.707L172.635 111.671C171.904 111.448 171.18 111.454 170.486 111.609C169.456 111.84 168.491 112.399 167.667 113.029L168.138 114.043L170.443 113.109L171.651 113.644L172.136 113.908L172.621 114.172L173.591 114.7L174.077 115.714L174.563 116.729L177.614 114.994C176.495 115.16 175.764 114.932 175.135 114.244Z" fill="#72A243"/>
<path d="M172.635 111.671L173.871 111.707C173.818 111.36 173.763 111.027 173.706 110.701L170.987 110.623L170.486 111.609C171.18 111.454 171.904 111.448 172.635 111.671Z" fill="#455F2C"/>
<path d="M168.138 114.043L169.652 113.586L170.901 113.622L171.651 113.644L170.443 113.109L168.138 114.043Z" fill="#639037"/>
<path d="M169.652 113.586L168.138 114.043C168.864 114.467 169.489 114.812 170.048 115.098L169.652 113.586Z" fill="#639037"/>
<path d="M167.023 118.012L167.98 119.54L168.138 114.043L167.667 113.029L166.567 116.499L167.023 118.012Z" fill="#83C048"/>
<path d="M174.563 116.729L173.756 115.705L172.089 115.786L171.588 115.81C172.587 116.216 173.458 116.452 174.563 116.729Z" fill="#72A243"/>
<path d="M180.263 121.895L180.191 124.394L178.317 125.34C179.046 125.067 179.453 124.964 180.162 125.393L180.119 126.893L181.302 125.926L183.401 122.485C183.472 122.398 183.541 122.315 183.608 122.234C184.222 121.499 184.624 121.018 183.473 119.986C182.317 120.045 181.651 120.213 180.263 121.895Z" fill="#7BA552"/>
<path fill-rule="evenodd" clip-rule="evenodd" d="M178.202 129.338C178.945 129.499 179.405 129.486 180.664 128.409L184.561 123.019C185.321 122.09 185.554 121.458 185.472 120.044C185.513 119.182 185.045 118.841 183.514 118.557C183.36 118.529 183.194 118.5 183.017 118.472L181.503 118.929L179.475 119.871L176.232 128.281L177.217 128.81L178.202 129.338ZM180.191 124.394L180.263 121.895C181.651 120.213 182.317 120.045 183.473 119.986C184.624 121.018 184.222 121.499 183.608 122.234C183.541 122.315 183.472 122.398 183.401 122.485L181.302 125.926L180.119 126.893L180.162 125.393C179.453 124.964 179.046 125.067 178.317 125.34L180.191 124.394Z" fill="#A2DA6B"/>
<path d="M172.839 124.498C171.118 127.978 169.708 129.458 167.12 132.021L172.262 127.167L172.839 124.498Z" fill="#719F44"/>
<path d="M155.413 121.68L156.326 124.707L163.251 127.408L167.764 127.037L167.267 126.94L166.769 126.842L166.272 126.744L165.774 126.647L164.78 126.451C164.276 126.285 163.846 126.158 163.452 126.049C163.238 125.989 163.035 125.935 162.837 125.881C162.655 125.833 162.478 125.785 162.299 125.736C161.777 125.591 161.247 125.43 160.593 125.182C160.135 125.008 159.617 124.792 158.997 124.508C158.714 124.378 158.409 124.234 158.08 124.073C157.788 123.931 157.476 123.776 157.143 123.606C157.024 123.546 156.903 123.484 156.779 123.421C156.646 123.352 156.51 123.281 156.369 123.208L156.208 122.951L155.413 121.68Z" fill="#4C7723"/>
<path d="M164.837 124.452L159.397 122.295L155.413 121.68L157.383 122.737L158.383 122.766L158.883 122.78L159.618 123.049L161.101 123.591L162.79 124.209L163.338 124.409L164.195 124.781L165.441 125.321L165.808 125.48L167.094 125.896L164.837 124.452Z" fill="#4C7723"/>
<path d="M163.453 120.411L166.452 120.497C165.425 119.407 164.717 119.768 163.459 120.407L163.453 120.411Z" fill="#283F12"/>
<path d="M161.968 119.868C161.684 118.882 161.329 118.484 160.012 118.311L161.968 119.868Z" fill="#283F12"/>
<path d="M161.101 123.591L160.593 125.182C161.247 125.43 161.777 125.591 162.299 125.736L162.79 124.209L161.101 123.591Z" fill="#D2EABB"/>
<path d="M159.618 123.049L158.997 124.508C159.617 124.792 160.135 125.008 160.593 125.182L161.101 123.591L159.618 123.049Z" fill="#D2EABB"/>
<path d="M163.338 124.409L162.79 124.209L162.299 125.736C162.478 125.785 162.655 125.833 162.837 125.881C163.035 125.935 163.238 125.989 163.452 126.049L164.195 124.781L163.338 124.409Z" fill="#D2EABB"/>
<path d="M163.452 126.049C163.846 126.158 164.276 126.285 164.78 126.451L165.774 126.647L164.783 126.326L165.441 125.321L164.195 124.781L163.452 126.049Z" fill="#D2EABB"/>
<path d="M165.808 125.48L165.441 125.321L164.783 126.326L165.774 126.647L166.111 125.722L165.808 125.48Z" fill="#D2EABB"/>
<path d="M167.764 127.037L169.278 126.581L168.782 126.441L167.293 126.023L167.094 125.896L165.808 125.48L166.111 125.722L166.637 126.14L167.201 126.589L167.764 127.037Z" fill="#283F12"/>
<path d="M167.764 127.037L167.201 126.589L166.769 126.842L167.267 126.94L167.764 127.037Z" fill="#D2EABB"/>
<path d="M166.637 126.14L166.272 126.744L166.769 126.842L167.201 126.589L166.637 126.14Z" fill="#D2EABB"/>
<path d="M166.111 125.722L165.774 126.647L166.272 126.744L166.637 126.14L166.111 125.722Z" fill="#D2EABB"/>
<path d="M158.883 122.78L158.383 122.766L158.08 124.073C158.409 124.234 158.714 124.378 158.997 124.508L159.618 123.049L158.883 122.78Z" fill="#D2EABB"/>
<path d="M157.383 122.737L157.143 123.606C157.476 123.776 157.788 123.931 158.08 124.073L158.383 122.766L157.383 122.737Z" fill="#D2EABB"/>
<path d="M157.143 123.606L157.383 122.737L156.796 122.844L156.779 123.421C156.903 123.484 157.024 123.546 157.143 123.606Z" fill="#D2EABB"/>
<path d="M156.208 122.951L156.369 123.208C156.51 123.281 156.646 123.352 156.779 123.421L156.796 122.844L156.208 122.951Z" fill="#D2EABB"/>
<path d="M157.383 122.737L155.413 121.68L156.208 122.951L156.796 122.844L157.383 122.737Z" fill="#283F12"/>
<path d="M154.029 117.639C152.414 119.753 152.191 120.819 151.882 122.703L152.544 117.096L154.029 117.639Z" fill="#719F44"/>
<path d="M152.817 107.6C152.203 108.638 151.685 108.651 151.76 109.57L151.702 111.569C152.327 112.662 152.105 113.194 151.13 114.054C150.451 114.928 150.481 115.159 150.588 115.539C151.065 116.32 151.439 116.069 152.282 114.587L154.273 109.142L154.559 107.9C154.017 107.495 153.62 107.462 152.817 107.6Z" fill="#7BA552"/>
<path d="M154.845 106.657L153.345 106.614L152.331 107.085L151.274 109.056L151.188 112.055L150.131 114.025L149.088 115.496L149.53 117.509L150.016 118.023L151.015 118.052L151.92 115.577L152.282 114.587C151.439 116.069 151.065 116.32 150.588 115.539C150.481 115.159 150.451 114.928 151.13 114.054C152.105 113.194 152.327 112.662 151.702 111.569L151.76 109.57C151.685 108.651 152.203 108.638 152.817 107.6C153.62 107.462 154.017 107.495 154.559 107.9L154.845 106.657Z" fill="#A2DA6B"/>
<path d="M155.204 128.927C158.044 129.232 159.419 129.829 161.637 131.363C161.527 131.204 161.428 131.054 161.334 130.911C160.77 130.055 160.376 129.457 158.874 128.782C157.534 128.695 156.708 128.763 155.204 128.927Z" fill="#719F44"/>
<path d="M173.046 134.692L165.949 137.956L160.446 137.995L164.62 138.98C167.503 139.466 170.264 139.787 172.895 139.959L177.217 128.81L176.232 128.281L173.046 134.692Z" fill="#456D1E"/>
<path d="M154.582 133.161L151.641 131.075L151.206 128.812L151.07 133.56L151.51 135.644C153.898 136.521 156.541 137.299 159.447 137.956L160.446 137.995L165.949 137.956L173.046 134.692L170.019 135.606L161.522 135.361L158.538 134.775L154.582 133.161Z" fill="#283F12"/>
<path d="M151.206 128.812L150.771 126.549L148.543 134.449C149.484 134.865 150.473 135.264 151.51 135.644L151.07 133.56L151.206 128.812Z" fill="#5E8E30"/>
<path fill-rule="evenodd" clip-rule="evenodd" d="M162.241 110.372L163.697 111.914L162.698 111.885L161.705 111.607C162.205 111.118 162.405 110.837 162.241 110.372ZM160.768 109.4L158.761 109.628L159.242 110.285L159.978 110.807C159.938 110.266 160.001 109.938 160.131 109.668C160.271 109.553 160.478 109.469 160.768 109.4Z" fill="#D2EABB"/>
<path fill-rule="evenodd" clip-rule="evenodd" d="M169.652 113.586L170.901 113.622C170.692 113.868 170.563 114.078 170.485 114.295C170.383 114.576 170.369 114.869 170.381 115.265C170.273 115.212 170.162 115.156 170.048 115.098L169.652 113.586ZM172.089 115.786L173.756 115.705L173.591 114.7L172.621 114.172C172.743 114.752 172.592 115.109 172.089 115.786Z" fill="#D2EABB"/>
<path fill-rule="evenodd" clip-rule="evenodd" d="M160.131 109.668C160.182 111.043 161.736 110.542 161.756 109.858L162.241 110.372C162.405 110.837 162.205 111.118 161.705 111.607L160.713 111.328L159.978 110.807C159.938 110.266 160.001 109.938 160.131 109.668ZM161.222 111.027C161.6 111.045 161.745 110.98 161.736 110.542C161.227 110.643 161.165 110.761 161.222 111.027Z" fill="#192B09"/>
<path fill-rule="evenodd" clip-rule="evenodd" d="M170.485 114.295C170.764 115.119 172.114 114.657 172.136 113.908L172.621 114.172C172.743 114.752 172.592 115.109 172.089 115.786L171.588 115.81C171.211 115.656 170.815 115.479 170.381 115.265C170.369 114.869 170.383 114.576 170.485 114.295ZM172.116 114.842C172.015 115.088 171.92 115.134 171.717 115.146C171.61 115.003 171.573 114.913 171.731 114.646C172.001 114.583 172.069 114.644 172.116 114.842Z" fill="#192B09"/>
<path d="M173.591 114.7L173.756 115.705L174.563 116.729L174.077 115.714L173.591 114.7Z" fill="#639037"/>
<path fill-rule="evenodd" clip-rule="evenodd" d="M69.7069 74.4408C71.53 72.7083 73.4196 70.9126 75.3935 69.0416L202.151 96.698L296.551 118.922C292.991 138.327 290.888 159.275 294.897 176.398L290.399 176.268L19.9781 117.468C40.9123 101.805 52.269 91.0122 69.7059 74.4417L69.7069 74.4408ZM35.13 112.402C52.3402 99.2077 61.856 91.3383 78.2197 75.1254L184.908 98.8879L289.691 122.226C284.801 141.117 283.734 151.381 284.815 169.105L35.13 112.402ZM79.6328 78.1673C66.3088 92.6291 57.878 99.709 42.1559 111.603L132.618 131.929C117.575 120.391 128.154 98.5046 151.167 94.4758L79.6328 78.1673ZM148.543 134.449C124.587 123.863 131.258 102.388 157.835 99.538L154.845 106.657L153.345 106.614L152.331 107.085L151.274 109.056L151.188 112.055L150.131 114.025L149.088 115.496L149.53 117.509L150.016 118.023L151.015 118.052L150.415 121.536L150.771 126.549L148.543 134.449ZM157.835 99.538C159.018 99.4112 160.24 99.3212 161.5 99.2708C160.384 99.3293 159.189 99.4192 157.835 99.538ZM164.62 138.98C162.937 138.696 161.212 138.356 159.447 137.956L160.446 137.995L164.62 138.98ZM207.222 107.348C224.238 120.164 212.15 141.45 183.971 143.543L277.721 164.899C278.143 149.329 279.406 140.62 283.69 125.054L207.222 107.348ZM167.094 125.896L167.293 126.023L168.782 126.441L167.094 125.896Z" fill="#66AD44"/>
<path d="M92.1993 93.6237L89.7712 93.0284L89.414 94.4852L87.6282 101.77L90.0562 102.365L92.1993 93.6237Z" fill="#8EC558"/>
<path d="M89.7712 93.0284L87.4716 94.009L87.7191 95.0993L89.414 94.4852L89.7712 93.0284Z" fill="#8EC558"/>
<path d="M90.0562 102.365L87.6282 101.77L85.6857 101.293L85.3285 102.75L91.1559 104.179L91.5131 102.722L90.0562 102.365Z" fill="#8EC558"/>
<path fill-rule="evenodd" clip-rule="evenodd" d="M98.0267 95.0524C102.883 96.2427 100.383 106.441 95.5265 105.25C90.6702 104.06 93.1705 93.862 98.0267 95.0524ZM97.6695 96.5092C100.34 97.1639 98.4939 104.433 95.8837 103.794C93.2734 103.154 94.9986 95.8546 97.6695 96.5092Z" fill="#8EC558"/>
<path fill-rule="evenodd" clip-rule="evenodd" d="M106.768 97.1954C111.624 98.3858 109.124 108.584 104.268 107.393C99.4114 106.203 101.912 96.0051 106.768 97.1954ZM106.411 98.6523C109.082 99.307 107.235 106.576 104.625 105.937C102.015 105.297 103.74 97.9976 106.411 98.6523Z" fill="#8EC558"/>
<path d="M242.535 128.63L240.107 128.034L239.75 129.491L237.964 136.775L240.392 137.371L241.464 133L242.535 128.63Z" fill="#8EC558"/>
<path d="M240.107 128.034L237.807 129.015L238.055 130.105L239.75 129.491L240.107 128.034Z" fill="#8EC558"/>
<path d="M240.392 137.371L237.964 136.775L236.021 136.299L235.664 137.756L241.492 139.185L241.849 137.728L240.392 137.371Z" fill="#8EC558"/>
<path fill-rule="evenodd" clip-rule="evenodd" d="M248.363 130.058C253.219 131.249 250.719 141.447 245.862 140.256C241.006 139.066 243.506 128.868 248.363 130.058ZM248.005 131.515C250.676 132.17 248.83 139.439 246.219 138.799C243.609 138.16 245.334 130.861 248.005 131.515Z" fill="#8EC558"/>
<path fill-rule="evenodd" clip-rule="evenodd" d="M257.104 132.201C261.96 133.392 259.46 143.59 254.603 142.399C249.747 141.209 252.247 131.011 257.104 132.201ZM256.746 133.658C259.417 134.313 257.571 141.582 254.961 140.943C252.35 140.303 254.076 133.004 256.746 133.658Z" fill="#8EC558"/>
<path d="M61.2928 110.54L60.0036 110.28L59.8932 110.836L59.341 113.614L60.6301 113.873L61.2928 110.54Z" fill="#B6C847"/>
<path d="M60.0036 110.28L58.8619 110.628L59.0461 111.05L59.8932 110.836L60.0036 110.28Z" fill="#B6C847"/>
<path d="M60.6301 113.873L59.341 113.614L58.3096 113.406L58.1992 113.961L61.2931 114.585L61.4036 114.029L60.6301 113.873Z" fill="#B6C847"/>
<path fill-rule="evenodd" clip-rule="evenodd" d="M64.3867 111.163C66.965 111.683 66.1919 115.572 63.6136 115.052C61.0353 114.533 61.8084 110.644 64.3867 111.163ZM64.2762 111.719C65.6943 112.005 65.1098 114.776 63.724 114.497C62.3382 114.218 62.8582 111.433 64.2762 111.719Z" fill="#B6C847"/>
<path d="M69.1786 112.136L67.8894 111.876L67.779 112.432L67.2268 115.21L68.5159 115.47L69.1786 112.136Z" fill="#B6C847"/>
<path d="M67.8894 111.876L66.7477 112.224L66.9319 112.646L67.779 112.432L67.8894 111.876Z" fill="#B6C847"/>
<path d="M68.5159 115.47L67.2268 115.21L66.1955 115.002L66.085 115.558L69.1789 116.181L69.2894 115.626L68.5159 115.47Z" fill="#B6C847"/>
<path fill-rule="evenodd" clip-rule="evenodd" d="M72.3766 112.788C74.9549 113.307 74.1818 117.196 71.6035 116.677C69.0252 116.157 69.7983 112.268 72.3766 112.788ZM72.2661 113.343C73.6842 113.629 73.0998 116.401 71.7139 116.121C70.3281 115.842 70.8481 113.058 72.2661 113.343Z" fill="#B6C847"/>
<path d="M77.1685 113.761L75.8793 113.501L75.7689 114.056L75.2167 116.834L76.5058 117.094L77.1685 113.761Z" fill="#B6C847"/>
<path d="M75.8793 113.501L74.7376 113.849L74.9218 114.271L75.7689 114.056L75.8793 113.501Z" fill="#B6C847"/>
<path d="M76.5058 117.094L75.2167 116.834L74.1854 116.627L74.0749 117.182L77.1688 117.806L77.2793 117.25L76.5058 117.094Z" fill="#B6C847"/>
<path fill-rule="evenodd" clip-rule="evenodd" d="M52.4453 108.741C55.0235 109.261 54.2504 113.15 51.6721 112.631C49.0939 112.111 49.867 108.222 52.4453 108.741ZM52.3348 109.297C53.7529 109.583 53.1684 112.354 51.7826 112.075C50.3968 111.796 50.9167 109.011 52.3348 109.297Z" fill="#B6C847"/>
<path d="M57.2371 109.714L55.948 109.454L55.8375 110.01L55.2853 112.788L56.5745 113.048L57.2371 109.714Z" fill="#B6C847"/>
<path d="M55.948 109.454L54.8062 109.802L54.9904 110.225L55.8375 110.01L55.948 109.454Z" fill="#B6C847"/>
<path d="M56.5745 113.048L55.2853 112.788L54.254 112.58L54.1436 113.136L57.2375 113.759L57.348 113.204L56.5745 113.048Z" fill="#B6C847"/>
<path d="M89.7498 116.32L88.4607 116.06L88.3502 116.616L87.798 119.394L89.0872 119.654L89.7498 116.32Z" fill="#B6C847"/>
<path d="M88.4607 116.06L87.3189 116.408L87.5031 116.83L88.3502 116.616L88.4607 116.06Z" fill="#B6C847"/>
<path d="M89.0872 119.654L87.798 119.394L86.7667 119.186L86.6563 119.742L89.7502 120.365L89.8606 119.81L89.0872 119.654Z" fill="#B6C847"/>
<path fill-rule="evenodd" clip-rule="evenodd" d="M92.8438 116.944C95.422 117.463 94.6489 121.352 92.0706 120.833C89.4924 120.313 90.2655 116.424 92.8438 116.944ZM92.7333 117.499C94.1514 117.785 93.5669 120.556 92.1811 120.277C90.7953 119.998 91.3152 117.214 92.7333 117.499Z" fill="#B6C847"/>
<path d="M97.6356 117.917L96.3465 117.657L96.236 118.212L95.6838 120.99L96.973 121.25L97.6356 117.917Z" fill="#B6C847"/>
<path d="M96.3465 117.657L95.2047 118.005L95.389 118.427L96.236 118.212L96.3465 117.657Z" fill="#B6C847"/>
<path d="M96.973 121.25L95.6838 120.99L94.6525 120.783L94.5421 121.338L97.636 121.962L97.7465 121.406L96.973 121.25Z" fill="#B6C847"/>
<path fill-rule="evenodd" clip-rule="evenodd" d="M100.834 118.568C103.412 119.088 102.639 122.977 100.061 122.457C97.4823 121.938 98.2554 118.049 100.834 118.568ZM100.723 119.124C102.141 119.409 101.557 122.181 100.171 121.902C98.7852 121.623 99.3051 118.838 100.723 119.124Z" fill="#B6C847"/>
<path d="M105.626 119.541L104.336 119.281L104.226 119.837L103.674 122.615L104.963 122.875L105.626 119.541Z" fill="#B6C847"/>
<path d="M104.336 119.281L103.195 119.629L103.379 120.051L104.226 119.837L104.336 119.281Z" fill="#B6C847"/>
<path d="M104.963 122.875L103.674 122.615L102.642 122.407L102.532 122.963L105.626 123.586L105.736 123.031L104.963 122.875Z" fill="#B6C847"/>
<path fill-rule="evenodd" clip-rule="evenodd" d="M80.9023 114.522C83.4806 115.041 82.7075 118.931 80.1292 118.411C77.5509 117.892 78.324 114.002 80.9023 114.522ZM80.7919 115.077C82.2099 115.363 81.6255 118.135 80.2397 117.855C78.8538 117.576 79.3738 114.792 80.7919 115.077Z" fill="#B6C847"/>
<path d="M85.6942 115.495L84.4051 115.235L84.2946 115.791L83.7424 118.569L85.0315 118.828L85.6942 115.495Z" fill="#B6C847"/>
<path d="M84.4051 115.235L83.2633 115.583L83.4475 116.005L84.2946 115.791L84.4051 115.235Z" fill="#B6C847"/>
<path d="M85.0315 118.828L83.7424 118.569L82.7111 118.361L82.6007 118.916L85.6946 119.54L85.805 118.984L85.0315 118.828Z" fill="#B6C847"/>
<path d="M257.988 154.618L256.699 154.358L256.588 154.914L256.036 157.692L257.325 157.952L257.988 154.618Z" fill="#B6C847"/>
<path d="M256.699 154.358L255.557 154.706L255.741 155.129L256.588 154.914L256.699 154.358Z" fill="#B6C847"/>
<path d="M257.325 157.952L256.036 157.692L255.005 157.484L254.895 158.04L257.988 158.663L258.099 158.108L257.325 157.952Z" fill="#B6C847"/>
<path fill-rule="evenodd" clip-rule="evenodd" d="M261.082 155.242C263.66 155.761 262.887 159.65 260.309 159.131C257.731 158.611 258.504 154.722 261.082 155.242ZM260.972 155.797C262.39 156.083 261.805 158.855 260.419 158.575C259.034 158.296 259.553 155.512 260.972 155.797Z" fill="#B6C847"/>
<path d="M265.874 156.215L264.585 155.955L264.474 156.51L263.922 159.288L265.211 159.548L265.874 156.215Z" fill="#B6C847"/>
<path d="M264.585 155.955L263.443 156.303L263.627 156.725L264.474 156.51L264.585 155.955Z" fill="#B6C847"/>
<path d="M265.211 159.548L263.922 159.288L262.891 159.081L262.78 159.636L265.874 160.26L265.985 159.704L265.211 159.548Z" fill="#B6C847"/>
<path fill-rule="evenodd" clip-rule="evenodd" d="M269.072 156.866C271.65 157.386 270.877 161.275 268.299 160.755C265.721 160.236 266.494 156.347 269.072 156.866ZM268.961 157.422C270.38 157.708 269.795 160.479 268.409 160.2C267.023 159.921 267.543 157.136 268.961 157.422Z" fill="#B6C847"/>
<path d="M273.864 157.839L272.575 157.579L272.464 158.135L271.912 160.913L273.201 161.173L273.864 157.839Z" fill="#B6C847"/>
<path d="M272.575 157.579L271.433 157.927L271.617 158.349L272.464 158.135L272.575 157.579Z" fill="#B6C847"/>
<path d="M273.201 161.173L271.912 160.913L270.881 160.705L270.77 161.261L273.864 161.884L273.975 161.329L273.201 161.173Z" fill="#B6C847"/>
<path fill-rule="evenodd" clip-rule="evenodd" d="M249.141 152.82C251.719 153.339 250.946 157.229 248.367 156.709C245.789 156.19 246.562 152.3 249.141 152.82ZM249.03 153.375C250.448 153.661 249.864 156.433 248.478 156.153C247.092 155.874 247.612 153.09 249.03 153.375Z" fill="#B6C847"/>
<path d="M253.932 153.793L252.643 153.533L252.533 154.089L251.981 156.867L253.27 157.126L253.932 153.793Z" fill="#B6C847"/>
<path d="M252.643 153.533L251.502 153.881L251.686 154.303L252.533 154.089L252.643 153.533Z" fill="#B6C847"/>
<path d="M253.27 157.126L251.981 156.867L250.949 156.659L250.839 157.214L253.933 157.838L254.043 157.282L253.27 157.126Z" fill="#B6C847"/>
<path d="M230.021 148.936L228.732 148.676L228.622 149.232L228.07 152.01L229.359 152.269L230.021 148.936Z" fill="#B6C847"/>
<path d="M228.732 148.676L227.59 149.024L227.775 149.446L228.622 149.232L228.732 148.676Z" fill="#B6C847"/>
<path d="M229.359 152.269L228.07 152.01L227.038 151.802L226.928 152.357L230.022 152.981L230.132 152.425L229.359 152.269Z" fill="#B6C847"/>
<path fill-rule="evenodd" clip-rule="evenodd" d="M233.115 149.559C235.694 150.079 234.92 153.968 232.342 153.448C229.764 152.929 230.537 149.04 233.115 149.559ZM233.005 150.115C234.423 150.401 233.838 153.172 232.453 152.893C231.067 152.614 231.587 149.829 233.005 150.115Z" fill="#B6C847"/>
<path d="M237.907 150.532L236.618 150.272L236.508 150.828L235.955 153.606L237.244 153.866L237.907 150.532Z" fill="#B6C847"/>
<path d="M236.618 150.272L235.476 150.62L235.66 151.043L236.508 150.828L236.618 150.272Z" fill="#B6C847"/>
<path d="M237.244 153.866L235.955 153.606L234.924 153.398L234.814 153.954L237.908 154.577L238.018 154.022L237.244 153.866Z" fill="#B6C847"/>
<path fill-rule="evenodd" clip-rule="evenodd" d="M241.105 151.184C243.683 151.703 242.91 155.593 240.332 155.073C237.754 154.553 238.527 150.664 241.105 151.184ZM240.995 151.739C242.413 152.025 241.828 154.797 240.443 154.517C239.057 154.238 239.577 151.454 240.995 151.739Z" fill="#B6C847"/>
<path d="M245.897 152.157L244.608 151.897L244.497 152.452L243.945 155.231L245.234 155.49L245.897 152.157Z" fill="#B6C847"/>
<path d="M244.608 151.897L243.466 152.245L243.65 152.667L244.497 152.452L244.608 151.897Z" fill="#B6C847"/>
<path d="M245.234 155.49L243.945 155.231L242.914 155.023L242.803 155.578L245.897 156.202L246.008 155.646L245.234 155.49Z" fill="#B6C847"/>
<path fill-rule="evenodd" clip-rule="evenodd" d="M221.174 147.137C223.752 147.657 222.979 151.546 220.401 151.027C217.822 150.507 218.596 146.618 221.174 147.137ZM221.063 147.693C222.481 147.979 221.897 150.75 220.511 150.471C219.125 150.192 219.645 147.407 221.063 147.693Z" fill="#B6C847"/>
<path d="M225.966 148.11L224.677 147.851L224.566 148.406L224.014 151.184L225.303 151.444L225.966 148.11Z" fill="#B6C847"/>
<path d="M224.677 147.851L223.535 148.198L223.719 148.621L224.566 148.406L224.677 147.851Z" fill="#B6C847"/>
<path d="M225.303 151.444L224.014 151.184L222.983 150.976L222.872 151.532L225.966 152.155L226.077 151.6L225.303 151.444Z" fill="#B6C847"/>
<path d="M114.771 100.211L116.122 100.487L116.319 99.5229L114.968 99.2467L114.771 100.211Z" fill="#4F9030"/>
<path d="M114.771 100.211L113.758 100.004L113.363 101.933L114.377 102.14L114.771 100.211Z" fill="#4F9030"/>
<path d="M110.038 111.315C110.315 111.68 110.754 111.979 111.265 112.196L113.363 101.933L112.012 101.657L110.038 111.315Z" fill="#4F9030"/>
<path d="M114.377 102.14L112.259 112.497C112.727 112.588 113.207 112.617 113.651 112.575L115.728 102.416L114.377 102.14Z" fill="#4F9030"/>
<path fill-rule="evenodd" clip-rule="evenodd" d="M111.505 101.553L111.9 99.6241L112.407 99.7277L112.012 101.657L111.505 101.553ZM115.728 102.416L117.248 102.727L115.493 111.311C115.333 112.092 114.571 112.487 113.651 112.575L113.223 114.667C116.241 114.978 119.136 114.31 119.715 112.174L121.47 103.59L127.043 104.73L127.438 102.801L116.122 100.487L115.728 102.416ZM111.265 112.196C111.576 112.328 111.914 112.429 112.259 112.497L111.858 114.461C111.518 114.394 111.181 114.315 110.85 114.225L111.265 112.196ZM110.038 111.315C109.779 110.975 109.66 110.579 109.75 110.137L107.724 109.723L105.697 109.309C105.157 111.21 107.007 112.833 109.53 113.797L110.038 111.315Z" fill="#4F9030"/>
<path d="M109.271 115.063L110.622 115.34L110.85 114.225C110.396 114.102 109.954 113.959 109.53 113.797L109.271 115.063Z" fill="#4F9030"/>
<path d="M111.636 115.547L112.987 115.823L113.223 114.667C112.768 114.62 112.311 114.551 111.858 114.461L111.636 115.547Z" fill="#4F9030"/>
<path d="M113.651 112.575C113.207 112.617 112.727 112.588 112.259 112.497L111.858 114.461C112.311 114.551 112.768 114.62 113.223 114.667L113.651 112.575Z" fill="#4F9030"/>
<path d="M111.265 112.196C110.754 111.979 110.315 111.68 110.038 111.315L109.53 113.797C109.954 113.959 110.396 114.102 110.85 114.225L111.265 112.196Z" fill="#4F9030"/>
<path d="M116.122 100.487L114.771 100.211L114.377 102.14L115.728 102.416L116.122 100.487Z" fill="#4F9030"/>
<path d="M113.758 100.004L112.407 99.7277L112.012 101.657L113.363 101.933L113.758 100.004Z" fill="#4F9030"/>
<path d="M113.955 99.0395L112.604 98.7632L112.407 99.7277L113.758 100.004L113.955 99.0395Z" fill="#4F9030"/>
<path d="M114.771 100.211L116.122 100.487L116.319 99.5229L114.968 99.2467L114.771 100.211Z" fill="#DDC336"/>
<path d="M114.771 100.211L113.758 100.004L113.363 101.933L114.377 102.14L114.771 100.211Z" fill="#B1BC34"/>
<path d="M110.038 111.315C110.315 111.68 110.754 111.979 111.265 112.196L113.363 101.933L112.012 101.657L110.038 111.315Z" fill="#DDC336"/>
<path d="M114.377 102.14L112.259 112.497C112.727 112.588 113.207 112.617 113.651 112.575L115.728 102.416L114.377 102.14Z" fill="#DDC336"/>
<path fill-rule="evenodd" clip-rule="evenodd" d="M111.505 101.553L111.9 99.6241L112.407 99.7277L112.012 101.657L111.505 101.553ZM115.728 102.416L117.248 102.727L115.493 111.311C115.333 112.092 114.571 112.487 113.651 112.575L113.223 114.667C116.241 114.978 119.136 114.31 119.715 112.174L121.47 103.59L127.043 104.73L127.438 102.801L116.122 100.487L115.728 102.416ZM111.265 112.196C111.576 112.328 111.914 112.429 112.259 112.497L111.858 114.461C111.518 114.394 111.181 114.315 110.85 114.225L111.265 112.196ZM110.038 111.315C109.779 110.975 109.66 110.579 109.75 110.137L107.724 109.723L105.697 109.309C105.157 111.21 107.007 112.833 109.53 113.797L110.038 111.315Z" fill="#B1BC34"/>
<path d="M109.271 115.063L110.622 115.34L110.85 114.225C110.396 114.102 109.954 113.959 109.53 113.797L109.271 115.063Z" fill="#DDC336"/>
<path d="M111.636 115.547L112.987 115.823L113.223 114.667C112.768 114.62 112.311 114.551 111.858 114.461L111.636 115.547Z" fill="#DDC336"/>
<path d="M113.651 112.575C113.207 112.617 112.727 112.588 112.259 112.497L111.858 114.461C112.311 114.551 112.768 114.62 113.223 114.667L113.651 112.575Z" fill="#DDC336"/>
<path d="M111.265 112.196C110.754 111.979 110.315 111.68 110.038 111.315L109.53 113.797C109.954 113.959 110.396 114.102 110.85 114.225L111.265 112.196Z" fill="#DDC336"/>
<path d="M116.122 100.487L114.771 100.211L114.377 102.14L115.728 102.416L116.122 100.487Z" fill="#DDC336"/>
<path d="M113.758 100.004L112.407 99.7277L112.012 101.657L113.363 101.933L113.758 100.004Z" fill="#DDC336"/>
<path d="M113.955 99.0395L112.604 98.7632L112.407 99.7277L113.758 100.004L113.955 99.0395Z" fill="#DDC336"/>
<path d="M265.221 135.66L266.572 135.936L266.769 134.972L265.418 134.696L265.221 135.66Z" fill="#4F9030"/>
<path d="M265.221 135.66L264.208 135.453L263.813 137.382L264.827 137.589L265.221 135.66Z" fill="#4F9030"/>
<path d="M260.488 146.764C260.766 147.129 261.204 147.428 261.715 147.645L263.813 137.382L262.462 137.106L260.488 146.764Z" fill="#4F9030"/>
<path d="M264.827 137.589L262.709 147.946C263.177 148.037 263.657 148.066 264.101 148.024L266.178 137.865L264.827 137.589Z" fill="#4F9030"/>
<path fill-rule="evenodd" clip-rule="evenodd" d="M261.955 137.002L262.35 135.073L262.857 135.177L262.462 137.106L261.955 137.002ZM266.178 137.865L267.698 138.176L265.943 146.76C265.783 147.541 265.021 147.936 264.101 148.024L263.673 150.116C266.691 150.428 269.586 149.759 270.165 147.624L271.92 139.039L277.493 140.179L277.888 138.25L266.572 135.936L266.178 137.865ZM261.715 147.645C262.026 147.777 262.364 147.878 262.709 147.946L262.308 149.91C261.968 149.843 261.631 149.764 261.3 149.674L261.715 147.645ZM260.488 146.764C260.229 146.424 260.11 146.028 260.2 145.586L258.174 145.172L256.147 144.758C255.607 146.659 257.457 148.282 259.98 149.246L260.488 146.764Z" fill="#4F9030"/>
<path d="M264.101 148.024C263.657 148.066 263.177 148.037 262.709 147.946L262.308 149.91C262.761 150 263.218 150.069 263.673 150.116L264.101 148.024Z" fill="#4F9030"/>
<path d="M261.715 147.645C261.204 147.428 260.766 147.129 260.488 146.764L259.98 149.246C260.404 149.408 260.847 149.551 261.3 149.674L261.715 147.645Z" fill="#4F9030"/>
<path d="M266.572 135.936L265.221 135.66L264.827 137.589L266.178 137.865L266.572 135.936Z" fill="#4F9030"/>
<path d="M264.208 135.453L262.857 135.177L262.462 137.106L263.813 137.382L264.208 135.453Z" fill="#4F9030"/>
<path d="M264.405 134.489L263.054 134.212L262.857 135.177L264.208 135.453L264.405 134.489Z" fill="#4F9030"/>
<path d="M265.221 135.66L266.572 135.936L266.769 134.972L265.418 134.696L265.221 135.66Z" fill="#DDC336"/>
<path d="M265.221 135.66L264.208 135.453L263.813 137.382L264.827 137.589L265.221 135.66Z" fill="#B1BC34"/>
<path d="M260.488 146.764C260.766 147.129 261.204 147.428 261.715 147.645L263.813 137.382L262.462 137.106L260.488 146.764Z" fill="#DDC336"/>
<path d="M264.827 137.589L262.709 147.946C263.177 148.037 263.657 148.066 264.101 148.024L266.178 137.865L264.827 137.589Z" fill="#DDC336"/>
<path fill-rule="evenodd" clip-rule="evenodd" d="M261.955 137.002L262.35 135.073L262.857 135.177L262.462 137.106L261.955 137.002ZM266.178 137.865L267.698 138.176L265.943 146.76C265.783 147.541 265.021 147.936 264.101 148.024L263.673 150.116C266.691 150.428 269.586 149.759 270.165 147.624L271.92 139.039L277.493 140.179L277.888 138.25L266.572 135.936L266.178 137.865ZM261.715 147.645C262.026 147.777 262.364 147.878 262.709 147.946L262.308 149.91C261.968 149.843 261.631 149.764 261.3 149.674L261.715 147.645ZM260.488 146.764C260.229 146.424 260.11 146.028 260.2 145.586L258.174 145.172L256.147 144.758C255.607 146.659 257.457 148.282 259.98 149.246L260.488 146.764Z" fill="#B1BC34"/>
<path d="M264.101 148.024C263.657 148.066 263.177 148.037 262.709 147.946L262.308 149.91C262.761 150 263.218 150.069 263.673 150.116L264.101 148.024Z" fill="#DDC336"/>
<path d="M261.715 147.645C261.204 147.428 260.766 147.129 260.488 146.764L259.98 149.246C260.404 149.408 260.847 149.551 261.3 149.674L261.715 147.645Z" fill="#DDC336"/>
<path d="M266.572 135.936L265.221 135.66L264.827 137.589L266.178 137.865L266.572 135.936Z" fill="#DDC336"/>
<path d="M264.208 135.453L262.857 135.177L262.462 137.106L263.813 137.382L264.208 135.453Z" fill="#DDC336"/>
<path d="M264.405 134.489L263.054 134.212L262.857 135.177L264.208 135.453L264.405 134.489Z" fill="#DDC336"/>
<path d="M40.9165 153.005L39.1333 152.608C37.0479 155.448 37.7771 161.578 41.5887 161.688C44.9444 161.784 46.1831 157.084 45.1221 153.942L43.1317 153.498C44.3909 155.448 43.7848 160.25 41.6318 160.188C39.2908 160.121 39.1061 154.418 40.9165 153.005Z" fill="#8EC558"/>
<path d="M46.8395 154.324C45.8316 157.396 46.8541 161.768 50.0676 161.86C52.8247 161.94 54.1528 158.781 53.9503 155.909L52.2069 155.52C52.4763 157.695 51.7322 160.408 50.1107 160.361C48.3014 160.309 47.7802 156.891 48.4724 154.688L46.8395 154.324Z" fill="#8EC558"/>
<path d="M40.9165 153.005C39.1061 154.418 39.2908 160.121 41.6318 160.188C43.7848 160.25 44.3909 155.448 43.1317 153.498L40.9165 153.005Z" fill="#4F9030"/>
<path d="M48.4724 154.688C47.7802 156.891 48.3014 160.309 50.1107 160.361C51.7322 160.408 52.4763 157.695 52.2069 155.52L48.4724 154.688Z" fill="#4F9030"/>
<path d="M31.6765 152.692L32.1476 153.706L33.6757 152.749L33.46 160.246L31.4609 160.188L31.4177 161.688L37.4152 161.86L37.4584 160.361L35.959 160.318L36.1996 151.954L33.7145 151.4L33.5556 151.365L31.6765 152.692Z" fill="#8EC558"/>
<path d="M60.7876 163.669C60.7876 164.466 60.1204 165.006 59.2363 165.276L59.2363 167.411C62.2557 167.112 64.9576 165.877 65.0972 163.669L65.0972 158.392L60.7876 157.432L60.7876 163.669Z" fill="#B1BC34"/>
<path fill-rule="evenodd" clip-rule="evenodd" d="M11.1529 146.039L11.8383 146.194L16.1553 183.201L194.531 187.69L218.882 193.221L9.9164 189.021L2.58792 130.786L15.5682 131.66L14.1979 136.122L11.4404 136.043L11.9141 143.56L11.1529 146.039ZM21.4274 176.85L17.1761 147.716L33.5556 151.365L31.6765 152.692L32.1476 153.706L33.6757 152.749L33.46 160.246L31.4609 160.188L31.4177 161.688L37.4152 161.86L37.4584 160.361L35.959 160.318L36.1996 151.954L39.1333 152.608C37.0479 155.448 37.7771 161.578 41.5887 161.688C44.9444 161.784 46.1831 157.084 45.1221 153.942L46.8395 154.324C45.8316 157.396 46.8541 161.768 50.0676 161.86C52.8247 161.94 54.1528 158.781 53.9503 155.909L55.4439 156.241L55.4439 164.765C55.1229 164.484 54.9265 164.12 54.9265 163.669L52.8579 163.669L50.7894 163.669C50.641 165.64 52.7784 166.86 55.4439 167.299L55.4439 168.591L56.8229 168.591L56.8229 167.454C57.1653 167.476 57.5111 167.485 57.8572 167.483L57.8572 168.591L59.2363 168.591L59.2363 167.411C62.2557 167.112 64.9576 165.877 65.0972 163.669L65.0972 158.392L70.7859 159.66C75.5796 166.903 83.8252 175.868 93.7293 179.345L21.4274 176.85ZM116.716 180.139L128.209 180.535C134.315 179.561 137.275 178.571 141.355 175.669L125.948 172.201L84.2054 162.649C90.8756 174.217 108.721 179.863 116.716 180.139ZM169.268 181.952L143.201 181.053C147.957 179.945 150.434 179.305 150.797 177.794L169.268 181.952Z" fill="#4F9030"/>
<path d="M57.8572 165.478C57.5057 165.481 57.1542 165.449 56.8229 165.382L56.8229 167.454C57.1653 167.476 57.5111 167.485 57.8572 167.483L57.8572 165.478Z" fill="#B1BC34"/>
<path d="M52.8579 163.669L50.7894 163.669C50.641 165.64 52.7784 166.86 55.4439 167.299L55.4439 164.765C55.1229 164.484 54.9265 164.12 54.9265 163.669L52.8579 163.669Z" fill="#B1BC34"/>
<path d="M56.8229 165.382C57.1542 165.449 57.5057 165.481 57.8572 165.478L57.8572 156.779L56.8229 156.549L56.8229 165.382Z" fill="#4F9030"/>
<path d="M59.2363 165.276C60.1204 165.006 60.7876 164.466 60.7876 163.669L60.7876 157.432L59.2363 157.086L59.2363 165.276Z" fill="#4F9030"/>
<path d="M55.4439 168.591L56.8229 168.591L56.8229 167.454L56.8229 165.382L56.8229 156.549L55.4439 156.241L55.4439 164.765L55.4439 167.299L55.4439 168.591Z" fill="#DDC336"/>
<path d="M57.8572 168.591L59.2363 168.591L59.2363 167.411L59.2363 165.276L59.2363 157.086L57.8572 156.779L57.8572 165.478L57.8572 167.483L57.8572 168.591Z" fill="#DDC336"/>
<path d="M37.4079 172.215L36.0929 172.219L36.096 172.785L36.1114 175.618L37.4265 175.614L37.4079 172.215Z" fill="#ACC446"/>
<path d="M36.0929 172.219L35.0439 172.788L35.309 173.165L36.096 172.785L36.0929 172.219Z" fill="#ACC446"/>
<path d="M37.4265 175.614L36.1114 175.618L35.0594 175.621L35.0625 176.187L38.2186 176.178L38.2155 175.612L37.4265 175.614Z" fill="#ACC446"/>
<path fill-rule="evenodd" clip-rule="evenodd" d="M40.5641 172.206C43.1942 172.199 43.2158 176.164 40.5857 176.171C37.9556 176.179 37.934 172.214 40.5641 172.206ZM40.5671 172.773C42.0137 172.769 41.9963 175.601 40.5826 175.605C39.1689 175.609 39.1206 172.777 40.5671 172.773Z" fill="#ACC446"/>
<path d="M45.4537 172.2L44.1386 172.203L44.1417 172.77L44.1572 175.602L45.4722 175.598L45.4537 172.2Z" fill="#ACC446"/>
<path d="M44.1386 172.203L43.0897 172.773L43.3548 173.15L44.1417 172.77L44.1386 172.203Z" fill="#ACC446"/>
<path d="M45.4722 175.598L44.1572 175.602L43.1051 175.605L43.1082 176.171L46.2643 176.163L46.2613 175.596L45.4722 175.598Z" fill="#ACC446"/>
<path fill-rule="evenodd" clip-rule="evenodd" d="M48.7174 172.197C51.3475 172.19 51.3691 176.155 48.739 176.163C46.1089 176.17 46.0873 172.205 48.7174 172.197ZM48.7205 172.764C50.1671 172.76 50.1496 175.592 48.736 175.596C47.3223 175.6 47.274 172.768 48.7205 172.764Z" fill="#ACC446"/>
<path d="M53.6071 172.191L52.292 172.194L52.2951 172.761L52.3105 175.593L53.6256 175.589L53.6071 172.191Z" fill="#ACC446"/>
<path d="M52.292 172.194L51.2431 172.764L51.5081 173.141L52.2951 172.761L52.292 172.194Z" fill="#ACC446"/>
<path d="M53.6256 175.589L52.3105 175.593L51.2585 175.596L51.2616 176.163L54.4177 176.154L54.4146 175.587L53.6256 175.589Z" fill="#ACC446"/>
<path fill-rule="evenodd" clip-rule="evenodd" d="M28.3795 172.225C31.0096 172.218 31.0312 176.183 28.4011 176.191C25.771 176.198 25.7494 172.233 28.3795 172.225ZM28.3826 172.792C29.8292 172.788 29.8117 175.62 28.398 175.624C26.9844 175.628 26.9361 172.796 28.3826 172.792Z" fill="#ACC446"/>
<path d="M33.2692 172.219L31.9541 172.222L31.9572 172.789L31.9726 175.621L33.2877 175.618L33.2692 172.219Z" fill="#ACC446"/>
<path d="M31.9541 172.222L30.9052 172.792L31.1702 173.169L31.9572 172.789L31.9541 172.222Z" fill="#ACC446"/>
<path d="M33.2877 175.618L31.9726 175.621L30.9206 175.624L30.9237 176.191L34.0798 176.182L34.0767 175.615L33.2877 175.618Z" fill="#ACC446"/>
<path d="M161.27 109.343L160.768 109.4C160.478 109.469 160.271 109.553 160.131 109.668C160.182 111.043 161.736 110.542 161.756 109.858L161.27 109.343Z" fill="#F1FBE8"/>
<path d="M161.222 111.027C161.6 111.045 161.745 110.98 161.736 110.542C161.227 110.643 161.165 110.761 161.222 111.027Z" fill="#F1FBE8"/>
<path d="M171.651 113.644L170.901 113.622C170.692 113.868 170.563 114.078 170.485 114.295C170.764 115.119 172.114 114.657 172.136 113.908L171.651 113.644Z" fill="#F1FBE8"/>
<path d="M171.717 115.146C171.92 115.134 172.015 115.088 172.116 114.842C172.069 114.644 172.001 114.583 171.731 114.646C171.573 114.913 171.61 115.003 171.717 115.146Z" fill="#F1FBE8"/>
</g>
<defs>
<clipPath id="clip0_175_277">
<rect width="297" height="297" fill="white"/>
</clipPath>
</defs>
</svg>
