<svg width="297" height="297" viewBox="0 0 297 297" fill="none" xmlns="http://www.w3.org/2000/svg">
<path d="M236 31.5315L230.219 20H125.01L130.791 31.5315H219.814H236Z" fill="#AF3B3B"/>
<path d="M72.9834 59.2072V89.1892V276H114.605L203.628 67.8559H135.415V59.2072L137.728 54.018L144.086 43.6396H208.831H214.322L219.814 31.5315H130.791L114.605 59.2072H106.545H105.934C104.994 59.5068 104.033 59.7745 103.043 60.0058C102.527 60.1263 102.004 60.2369 101.472 60.337C98.9539 60.8101 96.2382 61.047 93.2159 60.9776C92.4647 60.9603 91.6945 60.9241 90.9037 60.8679C89.4271 60.763 87.8787 60.5884 86.2476 60.337C85.5048 60.2225 84.7449 60.0921 83.9668 59.9451C82.8491 59.734 81.694 59.4887 80.4983 59.2072H72.9834Z" fill="#A03232"/>
<path d="M135.415 59.2072V67.8559H203.628H219.814L208.831 54.018H137.728L135.415 59.2072Z" fill="#922727"/>
<path d="M236 276V89.1892V31.5315H219.814L214.322 43.6396H219.814V67.8559H203.628L114.605 276H118.073L120.385 272.541L125.01 265.622L137.728 276H157.96L162.296 270.811L166.631 265.622L180.505 276H196.113L199.87 270.811L203.628 265.622L219.814 276H236Z" fill="#9F2B2B"/>
<path d="M219.814 67.8559V43.6396H214.322H208.831V54.018L219.814 67.8559Z" fill="#922727"/>
<path d="M130.791 31.5315L125.01 20L109.417 47.0991C117.891 48.3852 117.757 51.714 114.605 59.2072L130.791 31.5315Z" fill="#AF3B3B"/>
<path d="M109.417 47.0991H106.545V59.2072H114.605C117.757 51.714 117.891 48.3852 109.417 47.0991Z" fill="#A03232"/>
<path d="M101.309 43.6396C92.0848 41.7083 86.4958 42.2969 76.4518 43.6396C75.7864 44.0776 75.4151 44.4514 75.3569 44.7928V44.9793C75.4404 45.4519 76.1721 45.8701 77.608 46.3264C78.3702 46.5686 79.3309 46.8216 80.4983 47.0991C82.1696 47.3638 82.5397 47.7072 83.9668 47.8778C84.1443 47.899 84.5704 47.9652 85.0124 48.0339C85.5209 48.1128 86.0505 48.1951 86.2476 48.216C87.8979 48.3915 89.4236 48.1644 90.9037 48.216C91.6832 48.2432 92.4501 48.2539 93.2159 48.2489C95.8278 48.2317 98.4269 48.0311 101.472 47.6757C101.982 47.6161 102.505 47.5521 103.043 47.484C103.96 47.3677 104.92 47.2392 105.934 47.0991C106.285 46.6316 106.51 46.2299 106.545 45.8753V45.6848C106.453 44.8235 105.056 44.2451 101.309 43.6396Z" fill="#1F1F1F"/>
<path d="M72.9834 59.2072H80.4983C80.4983 59.2072 79.0304 58.8748 77.608 58.1853C75.871 57.3434 74.2019 55.9692 75.3569 54.018V47.0991H62L72.9834 59.2072Z" fill="#AF3B3B"/>
<path d="M72.9834 89.1892V59.2072L62 47.0991V74.1982L72.9834 89.1892Z" fill="#AF3B3B"/>
<path d="M72.9834 276V89.1892L62 74.1982V259.279L72.9834 276Z" fill="#AF3B3B"/>
<path d="M180.505 276L166.631 265.622L162.296 270.811L180.505 276Z" fill="#922727"/>
<path d="M137.728 276L125.01 265.622L120.385 272.541L137.728 276Z" fill="#922727"/>
<path d="M219.814 276L203.628 265.622L199.87 270.811L219.814 276Z" fill="#922727"/>
<path d="M105.934 59.2072H106.545V47.0991H105.934C104.92 47.2392 103.96 47.3677 103.043 47.484V60.0058C104.033 59.7745 104.994 59.5068 105.934 59.2072Z" fill="#3C3C3C"/>
<path d="M93.2159 48.2489V60.9776C96.2382 61.047 98.9539 60.8101 101.472 60.337V47.6757C98.4269 48.0311 95.8278 48.2317 93.2159 48.2489Z" fill="#3C3C3C"/>
<path d="M90.9037 48.216V60.8679C91.6945 60.9241 92.4647 60.9603 93.2159 60.9776V48.2489C92.4501 48.2539 91.6832 48.2432 90.9037 48.216Z" fill="#1F1F1F"/>
<path d="M90.9037 60.8679V48.216C89.4236 48.1644 87.8979 48.3915 86.2476 48.216V60.337C87.8787 60.5884 89.4271 60.763 90.9037 60.8679Z" fill="#3C3C3C"/>
<path d="M80.4983 59.2072V47.0991C79.3309 46.8216 78.3702 46.5686 77.608 46.3264V58.1853C79.0304 58.8748 80.4983 59.2072 80.4983 59.2072Z" fill="#1F1F1F"/>
<path d="M75.3569 47.0991V54.018C74.2019 55.9692 75.871 57.3434 77.608 58.1853V46.3264C76.1721 45.8701 75.4404 45.4519 75.3569 44.9793V47.0991Z" fill="#3C3C3C"/>
<path d="M101.472 47.6757V60.337C102.004 60.2369 102.527 60.1263 103.043 60.0058V47.484C102.505 47.5521 101.982 47.6161 101.472 47.6757Z" fill="#1F1F1F"/>
<path d="M86.2476 60.337V48.216C86.0505 48.1951 85.5209 48.1128 85.0124 48.0339C84.5704 47.9652 84.1443 47.899 83.9668 47.8778V59.9451C84.7449 60.0921 85.5048 60.2225 86.2476 60.337Z" fill="#1F1F1F"/>
<path d="M80.4983 47.0991V59.2072C81.694 59.4887 82.8491 59.734 83.9668 59.9451V47.8778C82.5397 47.7072 82.1696 47.3638 80.4983 47.0991Z" fill="#3C3C3C"/>
</svg>
