<svg width="297" height="297" viewBox="0 0 297 297" fill="none" xmlns="http://www.w3.org/2000/svg">
<path d="M220.397 51C203.421 51 191.197 58.1117 183.865 68.2171C210.099 79.0738 216.383 112.11 201.516 132.563C206.942 134.655 213.232 135.842 220.397 135.842C280.985 135.842 279.031 51 220.397 51Z" fill="#D9D9D9"/>
<path d="M220.397 51C203.421 51 191.197 58.1117 183.865 68.2171C210.099 79.0738 216.383 112.11 201.516 132.563C206.942 134.655 213.232 135.842 220.397 135.842C280.985 135.842 279.031 51 220.397 51Z" fill="#7B9BB2"/>
<path d="M150.038 66.52C91.4043 66.52 89.45 151.362 150.038 151.362C171.587 151.362 185.225 140.629 191.215 126.798C198.539 109.885 194.427 88.3394 179.361 76.1219C172.183 70.3017 162.52 66.5983 150.423 66.5212C150.295 66.5204 150.166 66.52 150.038 66.52Z" fill="#B3D5EE"/>
<path d="M76.6027 51C17.9694 51 16.0151 135.842 76.6027 135.842C83.7679 135.842 90.0584 134.655 95.4839 132.563C80.6168 112.11 86.9007 79.0738 113.134 68.2171C105.803 58.1117 93.5784 51 76.6027 51Z" fill="#7B9BB2"/>
<path d="M288 188.093C283.763 146.622 221.529 135.606 187.976 157.809C202.987 163.184 215.066 173.333 219.143 188.093V245H262.907V194.819L267.412 202.061V245H288V188.093Z" fill="#7B9BB2"/>
<path d="M262.907 194.819V245H267.412V202.061L262.907 194.819Z" fill="#617A8B"/>
<path d="M205.273 188.093C199.997 177.718 190.293 170.227 178.645 165.699C159.124 158.109 134.142 158.841 115.387 168.266C101.946 175.02 91.7031 186.24 88.9612 202.061V245H110.882V202.061L115.387 194.819V245H179.361L178.645 194.819L183.865 202.061V245H209.334V202.061C209.076 199.534 208.602 197.119 207.932 194.819C207.245 192.457 206.352 190.215 205.273 188.093Z" fill="#B3D5EE"/>
<path d="M183.865 202.061L178.645 194.819L179.361 245H183.865V202.061Z" fill="#93AEC2"/>
<path d="M110.882 245H115.387V194.819L110.882 202.061V245Z" fill="#93AEC2"/>
<path d="M34.0928 245V194.819L29.588 202.061V245H34.0928Z" fill="#617A8B"/>
<path d="M109.024 157.809C75.4711 135.606 13.2367 146.622 8.99994 188.093V245H29.588V202.061L34.0928 194.819V245H77.8574V188.093C81.9341 173.333 94.0127 163.184 109.024 157.809Z" fill="#7B9BB2"/>
</svg>
