<svg width="297" height="297" viewBox="0 0 297 297" fill="none" xmlns="http://www.w3.org/2000/svg">
<g clip-path="url(#clip0_175_280)">
<path d="M127.512 190.46L107.137 205.16L119.632 257.865L216.772 244.819L230.403 178.087L127.512 190.46Z" fill="#343932"/>
<path d="M136.518 113.427L34.8659 85.275L7.8798 176.475L107.137 205.16L127.512 190.46L136.518 113.427Z" fill="#A6ADAF"/>
<path d="M216.941 83.7851L136.518 113.427L127.512 190.46L230.403 178.087L244.602 146.397L263.052 128.219L216.941 83.7851Z" fill="#505358"/>
<path d="M136.518 113.427L156.158 35.1958L95.5117 60.2354L34.8659 85.275L136.518 113.427Z" fill="#B6C2C4"/>
<path d="M156.158 35.1958L136.518 113.427L216.941 83.7851L156.158 35.1958Z" fill="#687F83"/>
<path d="M156.158 35.1958L216.941 83.7851L228.513 74.5638L156.158 35.1958Z" fill="#4A595C"/>
<path d="M228.513 74.5638L216.941 83.7851L263.052 128.219L244.602 146.397L267.164 162.863L286.058 130.908L228.513 74.5638Z" fill="#272928"/>
<path d="M267.164 162.863L244.602 146.397L230.403 178.087L216.772 244.819L267.164 162.863Z" fill="#262924"/>
<path d="M107.137 205.16L7.8798 176.475L38.217 236.146L119.632 257.865L107.137 205.16Z" fill="#8B9496"/>
</g>
<defs>
<clipPath id="clip0_175_280">
<rect width="297" height="297" fill="white"/>
</clipPath>
</defs>
</svg>
