<svg width="297" height="297" viewBox="0 0 297 297" fill="none" xmlns="http://www.w3.org/2000/svg">
<path d="M212.525 32.5434C206.015 26.9597 180.903 26.0292 173.463 32.5434C177.144 34.9982 184.062 36.3735 191.134 36.6692C200.142 37.046 209.399 35.6707 212.525 32.5434Z" fill="#120A0D"/>
<path d="M191.134 36.6692L178.113 41.8474C175.867 74.4821 179.309 79.9666 188.344 81.8593L191.134 36.6692Z" fill="#F5D6A9"/>
<path fill-rule="evenodd" clip-rule="evenodd" d="M212.525 32.5434C209.399 35.6707 200.142 37.046 191.134 36.6692L188.344 81.8593C179.309 79.9666 175.867 74.4821 178.113 41.8474L191.134 36.6692C184.062 36.3735 177.144 34.9982 173.463 32.5434L159.74 75.345C173.463 87.5077 215.315 86.9779 226.248 75.345L212.525 32.5434ZM209.735 39.0559L206.015 41.8474L215.315 68.8315C215.123 57.3136 215.535 50.8864 209.735 39.0559Z" fill="#724933"/>
<path d="M206.015 41.8474L209.735 39.0559C215.535 50.8864 215.123 57.3136 215.315 68.8315L206.015 41.8474Z" fill="#E0AD82"/>
<path d="M159.74 75.345L157.652 81.8593C160.914 83.201 164.003 84.3861 166.952 85.4175C174.876 88.1885 181.793 89.8497 188.344 90.4541C196.555 91.2117 204.194 90.3089 212.525 87.8502C214.861 87.1608 217.251 86.3492 219.724 85.4175C222.48 84.3794 225.338 83.1923 228.336 81.8593L226.248 75.345C215.315 86.9779 173.463 87.5077 159.74 75.345Z" fill="#CB976E"/>
<path d="M188.344 90.4541V211.567C196.649 212.138 204.3 211.345 212.525 209.406V87.8502C204.194 90.3089 196.555 91.2117 188.344 90.4541Z" fill="#AC9653"/>
<path d="M212.525 87.8502V209.406C214.869 208.854 217.259 208.208 219.724 207.474V85.4175C217.251 86.3492 214.861 87.1608 212.525 87.8502Z" fill="#FFFFFB"/>
<path d="M228.336 204.684V81.8593C225.338 83.1923 222.48 84.3794 219.724 85.4175V207.474C222.487 206.652 225.345 205.72 228.336 204.684Z" fill="#CFBB86"/>
<path d="M166.952 85.4175V207.585C174.885 209.826 181.816 211.118 188.344 211.567V90.4541C181.793 89.8497 174.876 88.1885 166.952 85.4175Z" fill="#FEFCED"/>
<path d="M157.652 81.8593V204.684C160.911 205.786 164.001 206.751 166.952 207.585V85.4175C164.003 84.3861 160.914 83.201 157.652 81.8593Z" fill="#B9AD7E"/>
<path d="M188.344 211.567C181.816 211.118 174.885 209.826 166.952 207.585L160.607 215.299C166.727 218.543 174.952 220.586 183.693 221.462L188.344 211.567Z" fill="#FEFCED"/>
<path d="M166.952 207.585C164.001 206.751 160.911 205.786 157.652 204.684V213.523C158.569 214.151 159.557 214.742 160.607 215.299L166.952 207.585Z" fill="#B9AD7E"/>
<path d="M212.525 209.406C204.3 211.345 196.649 212.138 188.344 211.567L183.693 221.462C196.196 222.715 209.754 221.583 219.724 218.167L212.525 209.406Z" fill="#AC9653"/>
<path d="M157.652 222.363C185.26 234.05 200.728 233.089 228.336 222.363V213.988C227.683 214.444 226.985 214.881 226.248 215.299C224.326 216.387 222.129 217.343 219.724 218.167C209.754 221.583 196.196 222.715 183.693 221.462C174.952 220.586 166.727 218.543 160.607 215.299C159.557 214.742 158.569 214.151 157.652 213.523V222.363Z" fill="#A38234"/>
<path d="M228.336 204.684C225.345 205.72 222.487 206.652 219.724 207.474L226.248 215.299C226.985 214.881 227.683 214.444 228.336 213.988V204.684Z" fill="#CFBB86"/>
<path d="M219.724 207.474C217.259 208.208 214.869 208.854 212.525 209.406L219.724 218.167C222.129 217.343 224.326 216.387 226.248 215.299L219.724 207.474Z" fill="#FFFFFB"/>
<path d="M270.189 54.8752C263.679 49.2915 238.567 48.3609 231.126 54.8752C234.807 57.33 241.726 58.7052 248.798 59.001C257.806 59.3777 267.063 58.0024 270.189 54.8752Z" fill="#120A0D"/>
<path d="M248.798 59.001L235.777 64.1791C233.531 96.8138 236.973 102.298 246.007 104.191L248.798 59.001Z" fill="#F5D6A9"/>
<path fill-rule="evenodd" clip-rule="evenodd" d="M270.189 54.8752C267.063 58.0024 257.806 59.3777 248.798 59.001L246.007 104.191C236.973 102.298 233.531 96.8138 235.777 64.1791L248.798 59.001C241.726 58.7052 234.807 57.33 231.126 54.8752L217.404 97.6767C231.126 109.839 272.979 109.31 283.911 97.6767L270.189 54.8752ZM267.399 61.3876L263.679 64.1791L272.979 91.1633C272.787 79.6454 273.199 73.2181 267.399 61.3876Z" fill="#724933"/>
<path d="M263.679 64.1791L267.399 61.3876C273.199 73.2181 272.787 79.6454 272.979 91.1633L263.679 64.1791Z" fill="#E0AD82"/>
<path d="M217.404 97.6767L215.315 104.191C218.577 105.533 221.667 106.718 224.616 107.749C232.54 110.52 239.456 112.181 246.007 112.786C254.219 113.543 261.857 112.641 270.189 110.182C272.525 109.493 274.915 108.681 277.388 107.749C280.143 106.711 283.001 105.524 286 104.191L283.911 97.6767C272.979 109.31 231.126 109.839 217.404 97.6767Z" fill="#CB976E"/>
<path d="M246.007 112.786V233.899C254.313 234.47 261.964 233.677 270.189 231.738V110.182C261.857 112.641 254.219 113.543 246.007 112.786Z" fill="#AC9653"/>
<path d="M270.189 110.182V231.738C272.533 231.185 274.923 230.54 277.388 229.806V107.749C274.915 108.681 272.525 109.493 270.189 110.182Z" fill="#FFFFFB"/>
<path d="M286 227.016V104.191C283.001 105.524 280.143 106.711 277.388 107.749V229.806C280.151 228.984 283.008 228.051 286 227.016Z" fill="#CFBB86"/>
<path d="M224.616 107.749V229.917C232.548 232.158 239.48 233.45 246.007 233.899V112.786C239.456 112.181 232.54 110.52 224.616 107.749Z" fill="#FEFCED"/>
<path d="M215.315 104.191V227.016C218.575 228.118 221.665 229.083 224.616 229.917V107.749C221.667 106.718 218.577 105.533 215.315 104.191Z" fill="#B9AD7E"/>
<path d="M246.007 233.899C239.48 233.45 232.548 232.158 224.616 229.917L218.271 237.63C224.391 240.875 232.616 242.917 241.357 243.794L246.007 233.899Z" fill="#FEFCED"/>
<path d="M224.616 229.917C221.665 229.083 218.575 228.118 215.315 227.016V235.855C216.233 236.482 217.221 237.074 218.271 237.63L224.616 229.917Z" fill="#B9AD7E"/>
<path d="M270.189 231.738C261.964 233.677 254.313 234.47 246.007 233.899L241.357 243.794C253.859 245.047 267.418 243.914 277.388 240.499L270.189 231.738Z" fill="#AC9653"/>
<path d="M215.315 244.695C242.924 256.381 258.392 255.421 286 244.695V236.319C285.347 236.776 284.649 237.213 283.911 237.63C281.989 238.719 279.793 239.675 277.388 240.499C267.418 243.914 253.859 245.047 241.357 243.794C232.616 242.917 224.391 240.875 218.271 237.63C217.221 237.074 216.233 236.482 215.315 235.855V244.695Z" fill="#A38234"/>
<path d="M286 227.016C283.008 228.051 280.151 228.984 277.388 229.806L283.911 237.63C284.649 237.213 285.347 236.776 286 236.319V227.016Z" fill="#CFBB86"/>
<path d="M277.388 229.806C274.923 230.54 272.533 231.185 270.189 231.738L277.388 240.499C279.793 239.675 281.989 238.719 283.911 237.63L277.388 229.806Z" fill="#FFFFFB"/>
<path d="M15.8312 214.983C10.4973 221.701 10.5065 246.841 17.2914 254.036C19.6057 250.264 20.7208 243.296 20.7518 236.215C20.7914 227.195 19.0717 217.992 15.8312 214.983Z" fill="#120A0D"/>
<path d="M20.7518 236.215L26.4107 249.039C59.0915 250.065 64.4411 246.418 65.9938 237.315L20.7518 236.215Z" fill="#F5D6A9"/>
<path fill-rule="evenodd" clip-rule="evenodd" d="M15.8312 214.983C19.0717 217.992 20.7914 227.195 20.7518 236.215L65.9938 237.315C64.4411 246.418 59.0915 250.065 26.4107 249.039L20.7518 236.215C20.7208 243.296 19.6057 250.264 17.2914 254.036L60.5563 266.155C72.1919 251.982 70.0982 210.159 58.0702 199.664L15.8312 214.983ZM22.4404 217.529L25.3677 221.144L51.9729 210.837C40.4756 211.46 34.0404 211.288 22.4404 217.529Z" fill="#724933"/>
<path d="M25.3677 221.144L22.4404 217.529C34.0404 211.288 40.4756 211.46 51.9729 210.837L25.3677 221.144Z" fill="#E0AD82"/>
<path d="M60.5563 266.155L67.1411 268C68.3593 264.689 69.4276 261.556 70.3476 258.569C72.8192 250.543 74.2199 243.566 74.5787 236.994C75.0284 228.756 73.8411 221.153 71.0738 212.916C70.298 210.606 69.3979 208.247 68.3749 205.809C67.235 203.093 65.9424 200.281 64.4989 197.332L58.0702 199.664C70.0982 210.159 72.1919 251.982 60.5563 266.155Z" fill="#CB976E"/>
<path d="M74.5787 236.994L195.551 232.467C195.812 224.142 194.733 216.523 192.489 208.372L71.0738 212.916C73.8411 221.153 75.0284 228.756 74.5787 236.994Z" fill="#AC9653"/>
<path d="M71.0738 212.916L192.489 208.372C191.849 206.049 191.115 203.684 190.29 201.247L68.3749 205.809C69.3979 208.247 70.298 210.606 71.0738 212.916Z" fill="#FFFFFB"/>
<path d="M187.181 192.741L64.4989 197.332C65.9424 200.281 67.235 203.093 68.3749 205.809L190.29 201.247C189.366 198.515 188.328 195.693 187.181 192.741Z" fill="#CFBB86"/>
<path d="M70.3476 258.569L192.373 254.002C194.315 245.988 195.347 239.009 195.551 232.467L74.5787 236.994C74.2199 243.566 72.8192 250.543 70.3476 258.569Z" fill="#FEFCED"/>
<path d="M67.1411 268L189.823 263.409C190.802 260.109 191.651 256.984 192.373 254.002L70.3476 258.569C69.4276 261.556 68.3593 264.689 67.1411 268Z" fill="#B9AD7E"/>
<path d="M195.551 232.467C195.347 239.009 194.315 245.988 192.373 254.002L200.315 260.057C203.327 253.817 205.06 245.518 205.609 236.746L195.551 232.467Z" fill="#FEFCED"/>
<path d="M192.373 254.002C191.651 256.984 190.802 260.109 189.823 263.409L198.653 263.078C199.245 262.137 199.799 261.128 200.315 260.057L192.373 254.002Z" fill="#B9AD7E"/>
<path d="M192.489 208.372C194.733 216.523 195.812 224.142 195.551 232.467L205.609 236.746C206.393 224.2 204.755 210.687 200.971 200.847L192.489 208.372Z" fill="#AC9653"/>
<path d="M207.482 262.748C218.123 234.709 216.585 219.281 204.84 192.08L196.474 192.393C196.954 193.029 197.417 193.71 197.862 194.432C199.02 196.313 200.058 198.473 200.971 200.847C204.755 210.687 206.393 224.2 205.609 236.746C205.06 245.518 203.327 253.817 200.315 260.057C199.799 261.128 199.245 262.137 198.653 263.078L207.482 262.748Z" fill="#A38234"/>
<path d="M187.181 192.741C188.328 195.693 189.366 198.515 190.29 201.247L197.862 194.432C197.417 193.71 196.954 193.029 196.474 192.393L187.181 192.741Z" fill="#CFBB86"/>
<path d="M190.29 201.247C191.115 203.684 191.849 206.049 192.489 208.372L200.971 200.847C200.058 198.473 199.02 196.313 197.862 194.432L190.29 201.247Z" fill="#FFFFFB"/>
</svg>
