<svg width="297" height="297" viewBox="0 0 297 297" fill="none" xmlns="http://www.w3.org/2000/svg">
<path d="M137.271 202.75C146.621 209.153 166.49 222.402 171.158 224.175C170.855 221.817 170.703 219.352 170.711 216.787L153.991 209.768L137.271 202.75Z" fill="#4E2E2E"/>
<path d="M212.57 129.61C216.901 128.165 221.089 127.062 225.119 126.282L211.839 125.493L198.56 124.703L212.57 129.61Z" fill="#4E2E2E"/>
<path fill-rule="evenodd" clip-rule="evenodd" d="M194.789 254.475L180.881 246.204C175.69 240.61 172.317 233.166 171.158 224.175C170.855 221.817 170.703 219.352 170.711 216.787C170.76 200.81 176.992 180.917 191.133 158.422C192.298 156.57 193.516 154.7 194.789 152.813C199.837 145.329 205.744 137.58 212.57 129.61C216.901 128.165 221.089 127.062 225.119 126.282C234.488 124.47 243.004 124.402 250.485 125.839L261.794 131.706C259.628 143.58 258.236 151.039 257.448 152.42C257.255 152.205 257.06 151.99 256.862 151.773C202.191 142.473 172.117 221.786 197.805 234.518C202.946 237.066 207.568 238.895 211.839 239.988L194.789 254.475Z" fill="#C59264"/>
<path fill-rule="evenodd" clip-rule="evenodd" d="M197.805 234.518C172.117 221.786 202.191 142.473 256.862 151.773C258.256 170.054 256.903 175.948 253.777 185.019C253.163 180.175 250.807 175.313 246.528 169.504C210.423 169.76 204.031 212.931 212.57 216.787C219.485 219.909 224.972 220.322 236.93 213.756C236.93 224.135 217.584 241.032 215.298 240.725C215.289 240.724 215.281 240.723 215.273 240.721C214.152 240.532 213.009 240.288 211.839 239.988C207.568 238.895 202.946 237.066 197.805 234.518ZM257.448 152.42C257.255 152.205 257.06 151.99 256.862 151.773C256.997 152.674 257.19 152.871 257.448 152.42Z" fill="#EFC695"/>
<path fill-rule="evenodd" clip-rule="evenodd" d="M212.57 216.787C204.031 212.931 210.423 169.76 246.528 169.504C250.807 175.313 253.163 180.175 253.777 185.019L236.93 213.756C224.972 220.322 219.485 219.909 212.57 216.787Z" fill="#D3A97E"/>
<path d="M246.528 249.293C289.654 202.461 293.433 158.482 273.103 137.573L261.794 131.706C259.628 143.58 258.236 151.039 257.448 152.42C276.074 173.181 273.261 188.012 256.862 216.787C241.508 235.587 230.517 243.28 215.298 240.725C215.289 240.724 215.281 240.723 215.273 240.721C214.152 240.532 213.009 240.288 211.839 239.988L194.789 254.475L197.805 256.269C210.731 259.878 227.531 257.979 246.528 249.293Z" fill="#AC7848"/>
<path d="M253.777 185.019C254.638 191.827 252.057 198.601 246.528 207.921C242.904 210.288 239.739 212.215 236.93 213.756C236.93 224.135 217.584 241.032 215.298 240.725C230.517 243.28 241.508 235.587 256.862 216.787C273.261 188.012 276.074 173.181 257.448 152.42C257.19 152.871 256.997 152.674 256.862 151.773C258.256 170.054 256.903 175.948 253.777 185.019Z" fill="#BB9362"/>
<path d="M246.528 207.921C252.057 198.601 254.638 191.827 253.777 185.019L236.93 213.756C239.739 212.215 242.904 210.288 246.528 207.921Z" fill="#9F7347"/>
<path d="M194.789 152.813L132.592 126.282L191.133 158.422C192.298 156.57 193.516 154.7 194.789 152.813Z" fill="#4E2E2E"/>
<path d="M26.5118 60.1636L35.3961 71.2455L85.3457 97.8418L26.5118 60.1636Z" fill="#4E2E2E"/>
<path fill-rule="evenodd" clip-rule="evenodd" d="M81.1658 38L250.485 125.839C243.004 124.402 234.488 124.47 225.119 126.282L211.839 125.493L198.56 124.703L212.57 129.61C205.744 137.58 199.837 145.329 194.789 152.813L132.592 126.282L191.133 158.422C176.992 180.917 170.76 200.81 170.711 216.787L153.991 209.768L137.271 202.75C146.621 209.153 166.49 222.402 171.158 224.175C172.317 233.166 175.69 240.61 180.881 246.204L22.1081 151.773C20.5127 146.884 19.131 142.15 17.9599 137.573L51.3875 158.422L24.8324 136.278L31.705 134.983L16.1007 129.61C12.8431 114.111 12.183 100.564 13.9759 88.9764L31.705 97.8418L15.1433 83.0661C16.6686 76.7864 18.9995 71.1573 22.1081 66.1802L35.3961 71.2455L85.3457 97.8418L26.5118 60.1636C37.9397 46.7567 56.4151 39.3548 81.1658 38Z" fill="#624939"/>
<path d="M17.9599 137.573L51.3875 158.422L24.8324 136.278L17.9599 137.573Z" fill="#4E2E2E"/>
</svg>
